<svg width="2338" height="926" viewBox="0 0 2338 926" fill="none" xmlns="http://www.w3.org/2000/svg">
<path d="M769.458 528.346C769.458 733.936 602.806 900.599 397.214 900.599C191.622 900.599 24.948 733.936 24.948 528.346C24.948 322.756 191.622 156.091 397.214 156.091C602.806 156.091 769.458 322.756 769.458 528.346Z" fill="#E3B015"/>
<path d="M370.282 370.132C364.88 370.973 361.358 374.058 358.277 378.386C355.656 382.067 351.154 382.283 346.913 381.691C345.352 381.475 344.572 380.34 344.692 378.598C344.992 374.032 350.234 368.476 356.136 366.591C361.758 364.8 366.901 366.023 370.282 370.132Z" fill="black"/>
<path d="M363.259 385.29C364.908 382.17 365.331 379.322 368.549 377.865C372.533 376.059 376.053 376.051 379.372 378.823C382.672 381.579 387.701 382.832 388.103 388.515C386.273 388.751 385.066 387.743 383.859 386.888C374.444 380.183 374.202 380.151 363.259 385.29Z" fill="black"/>
<path d="M283.476 363.819C285.076 364.508 286.716 365.109 288.257 365.907C289.955 366.789 289.545 368.516 288.843 369.541C288.082 370.663 286.911 369.383 286.345 368.819C285.037 367.496 284.003 365.889 282.871 364.4C283.066 364.205 283.281 364.012 283.476 363.819Z" fill="black"/>
<path d="M275.035 391.688C276.144 390.081 277.292 389.869 278.323 389.488C278.985 389.246 279.666 388.419 280.347 389.311C280.6 389.665 280.697 390.322 280.581 390.762C280.328 391.686 279.432 391.657 278.673 391.681C277.642 391.714 276.611 391.688 275.035 391.688Z" fill="black"/>
<path d="M54.9099 601.415C54.9099 601.415 49.5904 615.626 54.9099 632.088C60.5175 649.283 93.0552 721.551 93.0552 721.551L103.65 720.886L102.01 650.416L126.28 616.475L159.704 581.358L179.785 623.781L131.932 711.958L110.499 749.64L117.104 757.311L184.772 637.946L195.411 662.671L204.764 711.958L195.411 735.2L165.178 753.966L133.55 784.243L151.171 797.178C151.171 797.178 173.823 836.655 215.337 837.266C236.947 835.347 238.344 859.224 241.668 859.495C244.971 859.766 269.662 867.266 269.662 867.266C269.662 867.266 282.518 860.746 289.322 872.229C293.755 881.297 306.655 881.266 306.655 881.266L321.062 882.266C321.062 882.266 323.522 850.746 332.742 844.856C341.941 838.968 349.477 806.443 349.477 806.443L341.032 735.2V716.639L353.134 674.925L358.919 668.023L385.317 656.157L389.594 651.358L393.096 663.843L424.903 740.561L446.38 757.262L442.346 882.599L496.051 886.599L650.693 775.659V770.849L716.765 679.711L719.048 660.459V634.681L712.288 614.558L712.931 598.602L691.52 543.918V532.334L687.574 525.51L685.868 516.759L682.277 510.859L698.302 498.17L719.048 463.746L721.819 445.833L717.718 423.325L697.837 404.472L679.595 384.535L630.434 380.31L613.922 378.003C613.922 378.003 605.654 390.473 595.17 404.472C584.709 418.469 585.728 428.598 585.728 428.598L585.706 435.462L565.514 451.926L569.149 461.388L565.514 471.659L563.01 486.03L563.497 495.801L560.793 505.613L565.514 514.184L584.731 525.195L573.76 532.334L553.036 540.675L543.239 558.121L527.679 577.018L500.129 586.664L495.231 577.018L483.838 579.237L479.582 565.524C479.582 565.524 477.698 557.748 455.556 554.822C446.158 542.88 442.612 532.603 442.612 532.603L429.49 522.199L424.903 507.583L412.424 483.544L391.345 458.538L399.236 451.926L405.375 445.567L406.971 437.475L410.296 418.965L418.32 401.508L420.181 388.843L415.483 368.762L405.375 357.212L378.512 344.958L352.757 326.102H328.265L324.386 321.388H310.09L286.973 335.529L262.747 360.196L250.734 384.335V393.981L237.413 406.216L228.214 421.057L225.51 444.7L209.02 454.852L207.601 486.03L202.548 487.726L152.456 486.485L140.332 487.726L133.594 491.643L129.361 502.694L125.748 511.061L113.38 528.569L98.3303 545.531L54.9099 601.415Z" fill="white"/>
<path d="M372.065 465.501C372.642 468.567 373.374 471.615 373.751 474.702C374.106 477.73 372.753 479.354 369.47 479.068C368.317 478.968 366.786 478.693 366.498 480.421C366.232 481.905 366.232 483.387 367.452 484.635C368.65 485.864 369.847 485.596 371.178 484.99C371.777 484.718 372.443 484.72 372.443 483.737C372.31 479.139 374.86 479.327 378.032 480.716C374.838 485.203 370.402 488.775 368.339 494.06C365.655 494.402 365.766 492.255 365.3 490.64C364.923 489.307 364.723 487.736 362.993 487.641C361.374 487.555 361.108 489.072 360.842 490.236C360.354 492.446 358.912 493.348 356.804 493.739C354.875 494.096 354.409 495.198 355.407 497.055C357.603 501.148 356.272 504.632 351.681 506.118C349.241 506.908 347.111 507.582 347.355 510.577C347.599 513.656 347.399 517.085 351.547 518.121C353.167 518.527 353.854 519.958 354.431 521.408C354.764 522.253 354.875 523.48 356.161 523.351C357.337 523.236 357.625 522.16 357.758 521.213C358.579 515.949 360.22 510.856 359.577 505.34C358.601 497.197 359.311 496.822 367.03 499.743C366.01 507.09 365.012 514.437 363.969 521.781C363.282 526.597 364.258 531.06 366.742 535.219C373.64 546.751 380.317 558.414 386.018 570.599C388.059 574.971 391.652 577.555 396.465 579.4C395.134 580.172 394.27 580.516 393.604 581.102C392.85 581.776 391.053 581.197 391.208 582.827C391.386 584.538 392.828 584.715 394.225 585.026C399.682 586.221 405.338 586.412 410.906 588.568C408.111 590.236 405.826 591.858 402.676 591.742C397.242 591.545 395.201 593.1 393.959 598.237C393.537 600.029 393.537 601.924 393.338 603.902C394.07 603.822 394.669 603.935 394.846 603.716C402.432 594.75 414.699 594.912 423.793 588.865C425.368 587.812 427.431 587.818 429.361 587.818C432.444 587.816 433.531 586.226 432.111 583.384C426.189 571.603 425.413 558.924 425.302 546.108C427.365 546.168 426.389 548.659 428.097 549.422C428.341 545.185 427.963 541.097 428.296 537.053C428.54 533.872 427.01 534.651 425.28 535.31C426.411 521.828 424.193 509.195 417.05 497.377C414.056 492.39 412.747 486.399 408.222 482.207C407.512 481.539 407.224 480.248 407.046 479.194C406.913 478.354 406.403 477.176 407.534 476.612C408.555 476.113 409.375 476.721 410.063 477.477C414.876 482.746 420.222 487.679 421.176 495.367C421.287 496.294 421.642 497.301 422.174 498.047C426.256 503.583 428.052 510.076 430.027 516.482C431.047 519.78 432.91 522.191 435.816 524.154C444.422 529.955 449.99 538.284 454.094 547.598C456.09 552.123 458.929 554.648 464.075 554.568C474.079 554.41 480.268 559.536 483.085 568.981C483.484 570.292 484.194 571.515 484.505 572.839C485.237 575.78 486.545 576.395 489.562 575.274C497.193 572.446 499.566 573.997 500.454 582.058C500.764 584.644 501.163 585.396 503.803 583.919C507.973 581.567 512.254 579.238 516.735 577.608C527.338 573.755 534.724 566.36 540.78 557.238C543.153 553.689 545.748 550.309 548.299 546.88C552.248 541.529 555.575 536.024 563.294 534.496C568.973 533.369 573.099 528.123 578.134 525.059C580.285 527.149 581.106 530.439 584.167 531.707C584.323 532.109 584.411 532.672 584.101 532.865C579.443 535.835 575.827 540.675 569.505 540.638C567.487 540.627 565.402 541.146 563.405 541.62C559.967 542.432 556.551 543.694 555.176 547.228C551.471 556.859 544.551 564.23 538.162 571.938C529.334 582.577 521.859 594.127 514.716 605.899C512.365 609.785 509.792 613.529 507.374 617.367C506.598 618.58 505.533 619.818 506.176 621.792C509.415 620.636 511.123 618.01 512.853 615.472C519.153 606.26 524.587 596.491 531.219 587.501C539.36 576.501 549.919 568.132 560.455 559.703C561.52 558.849 562.74 557.485 564.426 558.771C564.803 559.534 565.645 559.92 566.045 560.628C567.531 563.27 566.045 566.036 563.117 565.581C560.699 565.204 559.9 565.517 560.145 568.065C560.388 570.583 559.213 572.3 556.551 572.746C556.019 572.839 555.198 572.826 554.998 573.189C553.091 576.856 549.586 578.923 546.88 581.776C545.46 583.298 544.506 585.323 542.444 586.279C541.135 586.88 540.137 587.789 539.671 589.187C539.072 591.041 537.985 592.332 535.855 592.348C534.214 592.361 533.682 593.297 533.881 594.783C533.992 595.597 534.059 596.624 535.035 596.735C536.654 596.924 537.098 595.533 537.408 594.373C538.162 591.627 539.693 590.442 542.599 591.185C544.262 591.616 545.837 590.693 547.479 590.646C549.83 590.58 550.429 589.227 550.34 587.068C550.03 579.025 552.004 577.116 560.145 577.488C561.941 577.57 563.738 577.209 565.513 577.399C568.485 577.719 570.614 577.306 570.947 573.669C571.124 571.807 572.744 571.007 574.541 570.803C576.337 570.599 578.112 570.59 579.908 570.783C581.993 571.007 583.48 570.454 583.812 568.19C584.234 565.188 586.319 564.161 588.936 563.636C590.267 563.363 591.643 563.188 592.973 562.768C596.722 561.575 597.565 560.322 596.966 556.362C596.611 554.047 596.279 551.742 596.19 549.393C596.101 547.317 595.303 545.067 592.907 545.644C590.445 546.239 586.585 545.092 586.053 549.384C585.897 550.748 585.986 552.134 585.986 553.512C585.897 559.241 585.365 559.692 579.709 558.876C578.2 558.301 577.158 559.057 576.226 560.124C575.96 560.424 575.672 560.69 575.361 560.961C575.783 560.659 576.115 560.266 576.492 559.927C577.402 559.135 578.267 558.572 578.999 560.131C579.531 562.804 579.842 565.603 576.559 566.588C573.454 567.524 571.213 565.912 570.215 562.926C569.306 560.138 566.244 560.854 564.692 559.173C563.028 556.633 565.668 556.072 566.799 555.198C572.788 550.595 578.777 546.015 584.788 541.421C586.873 539.828 588.781 538.069 590.467 536.062C591.243 535.114 592.13 534.008 591.443 532.732C590.733 531.454 589.469 532.217 588.426 532.337C587.361 532.466 586.252 532.836 585.321 531.923C584.899 531.368 584.522 530.736 584.5 530.064C584.433 528.129 583.945 526.827 581.616 526.692C580.419 526.623 579.332 525.767 578.866 524.463C577.602 521.812 574.762 522.056 572.588 521.258C562.961 517.722 557.882 508.867 559.834 498.785C560.322 496.361 560.588 493.892 560.943 491.445C562.229 489.518 564.803 489.067 566.001 487.024C567.598 491.319 566.466 495.394 564.914 499.389C562.252 506.258 563.05 509.038 569.461 512.6C577.602 517.114 585.542 522.041 594.659 524.54C597.831 525.412 599.406 527.774 600.781 530.683C606.416 542.681 602.778 542.794 617.484 537.692C622.009 536.122 626.512 534.493 630.993 532.725C633.344 531.785 635.518 531.823 637.869 533.14C636.294 535.476 633.699 536.046 631.348 536.876C627.089 538.375 622.719 539.6 618.482 541.128C610.519 543.989 604.907 549.597 600.338 556.979C605.018 556.759 608.922 554.876 613.114 554.311C613.935 554.2 614.978 552.966 615.621 554.306C616.242 555.537 614.933 556.145 614.201 556.746C613.07 557.709 611.828 558.696 610.453 559.244C593.528 566.036 578.644 576.461 563.183 585.866C557.793 589.156 552.47 592.505 546.592 594.861C535.323 599.353 526.872 607.733 518.11 615.665C517.356 616.351 517.023 617.497 516.336 618.671C518.265 619.685 520.151 619.636 521.548 618.666C533.615 610.375 547.346 605.448 560.322 598.971C570.77 593.758 581.616 591.106 593.04 589.979C594.526 589.83 596.035 589.579 597.521 589.298C603.532 588.153 605.107 586.365 605.595 580.314C605.817 577.714 605.972 575.097 606.415 572.526C606.904 569.509 608.678 568.922 611.096 570.681C612.294 571.559 613.403 572.635 614.357 573.793C616.841 576.841 619.991 577.459 622.475 574.636C637.537 557.642 659.053 552.547 678.506 543.608C679.016 543.377 679.504 543.14 679.992 542.922C688.377 539.327 689.775 539.262 687.689 529.636C687.401 528.314 687.756 526.869 687.579 525.51C687.445 524.405 688.377 522.863 686.869 522.269C685.671 521.799 684.362 522.491 683.431 523.265C675.001 530.356 664.088 531.395 654.328 535.19C653.241 535.614 651.733 536.022 651.045 534.536C650.313 532.996 651.334 532.016 652.576 531.177C657.212 528.012 662.624 526.934 667.881 525.419C670.388 524.7 672.894 524.01 675.379 523.256C677.508 522.611 678.44 520.756 678.684 518.886C678.906 517.078 676.798 516.981 675.645 516.369C674.07 515.548 672.34 515.058 670.654 514.452C664.731 512.307 663.866 511.223 663.578 504.865C663.289 498.435 663.999 492.47 668.48 487.107C672.074 482.805 673.271 477.009 675.379 471.823C676.332 469.494 675.379 469.117 672.983 469.765C669.7 470.652 667.948 471.905 667.482 475.736C665.818 489.972 654.483 500.968 640.198 502.669C637.492 502.993 635.873 504.93 633.854 506.303C632.102 507.489 631.037 507.463 631.104 505.08C631.193 501.778 631.414 498.479 631.658 495.181C631.792 493.333 632.989 493.479 633.832 494.504C636.117 497.29 639.355 496.864 642.172 496.773C651.844 496.469 662.047 485.405 661.892 475.836C661.803 470.091 656.946 465.732 651.09 466.134C640.886 466.83 639.466 465.142 641.751 455.007C643.237 448.313 644.701 441.607 646.165 434.906C646.431 433.708 646.565 432.074 648.073 432.122C649.803 432.178 649.249 433.912 649.426 435.053C650.003 439.045 648.361 442.592 647.252 446.259C645.677 451.54 644.258 456.855 646.564 462.48C649.67 461.289 650.712 458.973 651.223 455.855C651.977 451.194 651.134 446.168 654.084 441.59C654.883 444.54 655.459 447.186 656.324 449.735C656.635 450.693 657.456 451.891 658.631 451.831C659.851 451.767 660.184 450.414 660.45 449.406C661.826 444.083 667.105 442.098 670.033 438.105C670.831 437.027 672.34 436.772 673.36 437.701C674.358 438.584 673.493 439.751 673.005 440.642C672.029 442.311 670.942 443.903 669.878 445.509C669.057 446.767 668.059 447.965 668.746 449.744C671.43 449.724 672.739 447.982 673.759 445.822C674.647 443.974 675.512 443.493 677.441 445.054C680.791 447.794 685.161 449.216 687.845 453.175C689.752 451.323 689.353 449.069 689.708 447.02C689.841 446.23 689.619 444.89 691.061 444.881C692.281 444.872 692.636 445.784 692.88 446.765C692.947 447.029 693.08 447.279 693.146 447.543C695.386 455.506 695.387 455.509 703.749 456.054C703.793 457.949 702.041 459.078 701.686 460.741C701.42 462.008 701.509 463.388 702.618 464.14C703.749 464.903 704.237 463.527 704.814 462.931C706.389 461.365 708.274 460.779 710.404 460.693C711.247 460.659 712.067 460.646 712.888 460.564C715.505 460.307 717.834 458.647 717.879 456.443C717.923 454.371 714.951 453.976 712.977 453.619C711.246 453.302 709.405 453.534 707.631 453.284C706.81 453.171 705.59 452.907 705.679 451.669C705.767 450.726 706.943 450.345 707.564 450.36C711.712 450.458 711.246 448.255 710.004 445.673C709.25 444.063 709.893 442.794 710.625 441.23C712.777 442.282 712.932 444.314 713.753 445.897C715.062 448.435 716.748 448.304 718.012 446.061C719.498 443.519 719.698 440.682 717.59 438.351C715.261 435.782 713.753 433.039 713.908 429.487C713.975 427.979 713.11 426.548 711.801 426.459C710.625 426.38 709.938 427.901 709.538 429.117C709.339 429.767 709.228 430.454 709.139 431.133C708.407 436.579 708.341 436.625 702.729 435.155C701.974 438.737 703.616 442.122 703.527 445.602C703.505 446.722 703.904 448.025 702.618 448.348C701.464 448.643 701.265 447.162 700.91 446.39C699.934 444.362 698.802 442.665 696.806 441.414C693.723 439.485 693.856 436.545 694.632 433.354C696.03 427.759 695.564 427.313 689.974 428.411C687.423 428.915 685.937 428.873 687.357 425.55C688.377 423.174 688.887 420.579 689.508 418.048C689.73 417.148 689.708 416.014 688.732 415.486C687.734 414.963 686.913 415.639 686.092 416.203C683.031 418.348 681.967 421.653 681.257 425.024C680.325 429.507 677.552 430.9 673.271 431.06C670.299 431.171 669.545 430.219 670.366 427.637C671.319 424.634 672.473 421.69 673.293 418.656C673.715 417.079 675.645 414.872 673.671 413.88C671.585 412.833 671.142 415.699 670.166 417.037C668.48 419.312 667.815 422.347 664.975 423.937C663.533 421.67 664.842 419.794 665.619 417.904C666.528 415.755 667.526 413.645 668.502 411.531C669.722 408.905 671.275 406.689 674.691 407.463C678.129 408.244 681.745 408.96 680.769 413.931C680.724 414.195 680.724 414.486 680.747 414.747C680.924 415.748 681.656 415.686 682.299 415.406C684.983 414.253 688.222 414.078 690.107 411.609C690.595 410.959 689.287 409.719 688 409.648C686.758 409.581 686.004 408.914 685.471 407.833C681.811 400.405 681.811 400.409 675.667 396.326C677.907 396.026 679.926 395.806 681.922 395.46C682.743 395.318 684.029 396.042 684.251 394.58C684.429 393.522 683.652 392.779 682.898 392.191C678.018 388.411 672.473 386.215 666.328 385.488C663.001 385.095 661.116 386.579 660.317 389.698C659.141 394.347 657.966 398.996 656.79 403.643C654.461 404.173 653.574 401.161 651.045 401.363C650.779 404.435 653.463 405.775 654.727 407.82C655.859 409.648 657.899 411.036 657.079 413.627C655.859 417.4 654.75 421.236 653.263 424.907C652.709 426.286 651.178 427.276 649.47 429.115C649.67 425.43 649.559 422.58 650.047 419.834C650.846 415.351 649.027 412.503 645.278 410.351C638.002 406.17 630.15 403.297 622.32 400.383C619.37 399.285 616.375 398.251 613.514 396.96C608.545 394.724 606.859 390.942 608.767 385.856C611.34 378.928 614.556 375.606 622.453 376.236C638.513 377.511 654.616 378.05 670.454 381.293C677.242 382.684 682.876 385.516 687.446 391.164C690.484 394.897 695.409 397.02 698.98 400.405C712.6 413.377 724.2 428.13 724.422 447.734C724.622 467.513 719.099 485.767 701.575 498.053C697.183 501.136 692.88 504.371 688.643 507.653C684.606 510.781 684.14 513.552 686.469 518.061C689.176 523.3 691.704 528.629 692.858 534.473C693.013 535.283 693.501 536.268 693.213 536.891C690.928 541.904 694.166 545.544 696.185 549.464C703.527 563.571 711.557 577.36 715.15 593.106C716.415 598.667 716.703 604.266 716.504 609.916C716.415 612.684 716.592 615.401 717.191 618.099C716.082 619.472 716.015 621.634 713.997 622.333C712.466 617.593 711.912 612.613 711.868 607.755C711.734 596.192 708.252 585.658 703.527 575.348C699.779 567.138 696.163 558.858 692.414 550.644C690.507 546.489 688.266 545.322 684.207 547.084C670.898 552.849 657.123 557.549 644.147 564.057C637.293 567.484 631.392 572.136 626.623 578.171C622.497 583.397 620.945 583.783 614.645 581.15C610.453 579.394 610.098 579.635 609.743 584.329C609.21 591.605 607.458 593.45 600.338 594.209C595.28 594.748 590.223 595.575 585.165 595.781C580.552 595.968 577.313 599.373 572.965 600.176C570.747 600.582 572.145 603.607 571.391 605.621C565.468 601.573 559.723 602.915 553.645 605.714C538.096 612.875 523.234 621.435 507.308 627.852C501.119 630.345 496.572 635.451 491.292 639.353C486.545 642.836 481.843 646.385 475.676 646.979C473.591 645.83 474.612 644.058 474.967 642.598C475.898 638.781 478.006 635.487 480.446 632.503C491.004 619.452 500.431 605.524 511.212 592.645C513.74 589.63 517.045 587.23 518.62 583.313C512.92 586.121 506.465 587.412 501.784 592.126C499.988 592.7 500.764 593.807 501.23 594.854C501.54 595.941 501.607 597.048 501.429 598.139C501.141 599.779 500.875 601.751 498.79 601.784C496.949 601.81 496.505 599.98 496.283 598.485C495.884 595.489 495.152 592.523 495.219 589.466C495.241 588.364 495.352 587.237 495.13 586.163C494.753 584.278 495.374 581.437 492.49 581.352C489.74 581.268 487.411 582.732 486.834 585.809C486.191 589.196 485.725 592.603 485.836 596.074C485.947 599.57 485.148 602.917 483.817 606.134C483.44 607.028 482.908 608.07 481.887 608.075C480.8 608.079 480.446 606.928 480.068 606.056C479.07 603.747 478.671 601.325 478.671 598.805C478.671 592.19 478.671 585.578 478.671 578.961C478.671 577.584 478.693 576.204 478.56 574.831C477.606 565.2 473.835 561.451 464.186 560.533C462.523 560.375 460.881 560.501 459.218 560.32C455.513 559.909 452.563 558.283 451.299 554.637C447.483 543.699 438.677 536.507 431.579 527.923C431.668 546.17 428.673 564.705 438.256 581.698C438.788 582.652 439.121 583.723 439.454 584.77C441.117 589.715 439.609 592.869 434.418 593.306C425.923 594.018 418.492 597.445 410.95 600.834C408.954 601.742 406.98 602.749 405.227 604.104C403.719 605.258 402.565 606.599 403.32 608.667C404.163 610.874 406.004 611.26 408.067 611.056C410.551 610.807 412.924 610.075 415.298 609.299C421.575 607.229 427.808 605.042 434.13 603.059C443.491 600.116 448.526 602.21 453.339 610.747C458.907 620.578 464.541 630.383 469.82 640.373C471.218 643.051 473.68 645.032 474.59 647.993C479.558 655.821 486.279 662.225 492.024 669.434C492.268 669.758 492.623 670.026 492.823 670.381C498.191 679.974 504.934 679.912 515.581 676.55C528.779 672.379 539.87 665.155 549.453 655.362C550.407 654.39 551.516 653.583 552.558 652.7C554.222 653.308 555.375 654.412 555.886 656.156C550.163 662.329 544.085 668.021 536.255 671.528C530.865 673.941 526.805 677.534 525.696 683.759C525.097 687.219 522.081 688.949 519.463 691.729C520.084 688.534 520.816 686.001 521.016 683.426C521.193 681.046 520.461 679.236 517.378 680.922C516.003 681.671 514.761 682.457 513.94 683.772C506.931 695.058 500.498 706.542 501.185 720.529C501.274 722.288 500.853 724.092 500.542 725.851C500.32 727.077 500.431 729.005 498.612 728.783C497.392 728.635 496.239 727.454 496.195 725.802C495.995 720.458 494.952 715.117 496.261 709.776C498.346 701.344 500.409 692.906 507.552 686.977C508.794 685.941 509.149 684.482 509.504 682.554C503.182 682.867 498.701 688.224 491.914 688.461C493.533 686.884 494.842 685.746 495.973 684.471C496.949 683.393 499.588 682.703 498.346 681.004C496.949 679.118 494.376 678.466 492.024 679.974C490.427 680.993 489.03 682.275 487.322 683.608C486.878 679.935 489.318 677.015 488.697 673.202C485.614 675.103 485.281 678.53 483.485 680.895C482.309 682.441 481.71 685.87 479.558 684.803C477.185 683.621 479.336 680.915 480.113 679.038C481.244 676.385 482.686 673.874 483.906 671.266C484.793 669.383 484.882 667.424 483.196 665.969C475.344 659.195 470.575 650.093 464.985 641.669C459.306 633.096 454.36 624.034 449.081 615.19C446.53 610.907 446.219 611.151 442.337 614.394C435.372 620.228 427.631 625.006 419.734 629.489C412.592 633.557 405.183 637.155 397.574 640.329C394.469 641.627 390.787 642.802 388.325 640.101C385.752 637.264 386.506 633.297 388.147 629.984C389.234 627.801 390.853 625.86 392.406 623.946C394.136 621.803 394.159 619.753 392.672 617.526C390.432 614.23 388.391 610.776 385.996 607.598C374.617 592.514 370.335 574.616 365.655 556.857C368.982 556.424 370.335 559.164 372.176 561.023C373.374 562.227 374.483 563.398 376.369 563.083C377.079 562.968 377.722 562.646 377.877 561.901C378.032 561.052 377.367 560.564 376.679 560.541C372.82 560.417 370.934 558.7 371.334 554.61C371.467 553.173 370.091 553.024 368.894 553.441C367.607 553.894 366.831 555.26 365.389 555.486C363.792 551.602 363.614 547.512 363.792 543.408C363.947 539.56 362.727 536.53 359.733 533.977C351.902 527.273 344.205 520.412 336.442 513.616C336.131 513.345 335.776 513.13 335.466 512.857C333.935 511.504 331.628 510.36 330.32 511.593C328.967 512.877 330.874 514.785 331.872 516.145C345.825 535.101 354.365 556.753 362.949 578.38C362.106 580.345 361.174 582.235 358.468 581.687C356.139 578.73 354.875 575.203 353.389 571.827C345.026 552.931 336.331 534.189 327.214 515.641C325.173 511.458 322.534 507.658 319.14 503.277C318.985 506.225 320.072 507.798 321.025 509.346C329.188 522.726 334.379 537.111 335.776 552.78C336.02 555.664 336.242 558.549 335.599 561.418C334.401 563.416 333.137 565.315 330.608 565.747C329.321 559.982 330.364 553.998 328.478 548.226C324.73 536.652 321.38 524.946 317.853 513.294C317.432 511.85 317.033 510.005 315.413 509.923C314.282 509.867 313.883 511.644 313.328 512.744C309.58 520.015 302.903 520.903 294.452 520.714C289.328 520.601 284.98 518.123 281.054 514.993C277.083 511.826 273.179 508.561 269.253 505.324C268.521 504.734 267.368 504.146 268.122 503.046C268.743 502.117 269.963 502.43 270.762 502.92C274 504.963 277.172 507.117 280.388 509.239C284.248 511.804 287.819 514.871 292.522 515.947C300.574 517.771 308.825 513.352 311.398 505.721C312.752 501.673 311.643 499.382 307.472 499.06C299.287 498.43 291.524 496.543 284.159 492.896C281.986 491.827 279.612 491.94 277.283 491.909C272.292 491.847 271.893 491.447 272.137 486.485C273.113 485.143 274.51 484.795 276.041 484.851C277.327 484.893 278.126 484.356 278.281 483.054C278.37 482.519 278.459 481.92 278.059 481.51C277.106 480.512 276.374 481.51 275.597 481.881C274.732 482.284 273.934 482.805 272.935 482.337C275.398 475.621 277.083 468.733 277.616 461.58C279.146 459.264 280.766 459.457 282.54 461.318C283.605 462.412 284.514 463.563 285.135 464.954C285.712 467.163 286.267 469.374 286.843 471.586C286.045 472.542 284.913 472.353 283.827 472.382C282.651 472.413 281.675 472.775 281.52 474.128C281.387 475.406 281.697 476.619 282.895 477.262C284.115 477.908 284.913 477.012 285.668 476.211C286.311 475.525 286.866 474.745 287.908 474.576C289.372 477.169 290.747 479.818 292.322 482.344C293.941 484.931 295.605 487.373 291.28 488.972C290.592 489.227 290.015 489.751 290.282 490.511C290.659 491.605 291.457 492.208 292.722 492.379C298.267 493.144 303.79 494.222 310.312 493.914C306.119 489.172 300.818 486.177 298.4 480.727C300.463 478.886 302.104 480.445 303.812 481.395C309.868 487.956 316.145 494.178 324.353 498.228C333.536 502.778 338.46 501.982 345.47 494.615C351.17 488.644 357.026 482.825 362.904 477.034C366.431 473.553 369.404 469.656 372.065 465.501Z" fill="black"/>
<path d="M501.307 591.612C506.666 585.99 513.93 584.227 521.068 580.813C520.796 583.905 519.352 585.119 518.179 586.387C503.945 601.733 492.327 619.151 479.474 635.578C476.983 638.772 474.681 642.429 475.686 646.978C475.33 647.317 474.953 647.654 474.597 647.993C472.462 646.816 471.185 644.918 470.013 642.856C463.942 631.969 457.893 621.061 451.717 610.236C447.594 603.039 443.051 601.335 435.159 603.831C426.933 606.428 418.748 609.148 410.542 611.835C408.847 612.396 407.151 612.872 405.33 612.474C402.902 611.948 402.023 610.05 401.625 608.003C401.143 605.585 402.943 604.111 404.702 603.169C413.745 598.317 422.579 593.008 433.296 592.51C438.99 592.244 440.895 589.628 438.236 584.727C430.533 570.476 429.34 555.216 430.031 539.512C430.219 534.84 430.052 530.149 430.052 525.588C430.847 525.179 431.349 525.286 431.705 525.778C438.802 535.29 448.745 542.757 452.45 554.703C453.455 557.916 456.281 558.821 459.232 559.26C460.572 559.463 461.995 559.283 463.356 559.354C474.785 559.959 479.474 564.659 479.746 576.09C479.914 583.117 479.872 590.151 479.746 597.178C479.663 600.963 480.249 604.544 481.861 608.273C483.891 604.547 484.645 600.724 484.729 596.755C484.791 593.308 485.063 589.893 485.419 586.465C485.754 583.293 487.136 581.566 490.171 580.551C495.007 578.925 495.551 579.057 496.116 584.33C496.597 588.707 496.849 593.111 497.121 597.509C497.225 599.054 497.246 600.538 499.026 601.58C501.307 599.431 500.554 596.684 500.491 594.093C499.863 592.964 500.658 592.315 501.307 591.612Z" fill="white"/>
<path d="M359.117 581.674C360.398 580.575 361.68 579.477 362.962 578.378C366.627 586.798 369.491 595.501 372.255 604.227C373.738 608.9 372.957 610.584 368.33 612.671C356.413 618.045 346.939 625.919 341.15 637.928C338.226 644.013 337.285 650.476 336.664 657.042C336.163 662.298 335.202 667.389 332.237 671.881C330.435 674.621 331.757 677.768 330.916 680.702C329.574 685.313 328.091 689.507 323.585 692.077C320.44 693.871 319.539 697.208 319.299 700.575C319.118 703.413 318.157 705.622 315.613 707.111C314.091 705.268 314.372 703.275 315.093 701.234C316.555 697.024 315.253 693.641 311.848 691.061C308.543 688.562 307.602 685.593 309.124 681.69C310.466 678.257 310.987 674.371 312.869 671.295C319.479 660.483 318.698 648.656 318.337 636.847C318.237 633.546 316.695 630.96 314.091 628.763C297.988 615.285 279.241 606.372 260.493 597.477C256.648 595.655 252.442 594.745 248.095 594.914C243.889 595.08 240.865 593.434 239.743 589.155C239.062 586.536 237.039 585.458 234.836 584.627C231.151 583.245 229.328 580.519 229.248 576.749C228.867 558.437 228.567 540.122 228.227 521.808C228.227 521.423 228.347 521.033 228.447 520.41C231.211 521.137 231.391 523.26 231.612 525.453C233.074 539.591 233.094 553.774 233.074 567.967C233.054 580.781 231.792 581.054 245.972 582.764C261.855 584.681 275.675 592.022 288.534 601.307C297.587 607.844 305.999 615.199 314.652 622.209C316.975 624.092 320.18 627.321 322.283 625.098C324.306 622.966 320.941 619.804 318.998 617.531C299.67 595.06 281.824 571.508 267.503 545.484C263.097 537.45 259.532 528.95 255.466 520.714C254.284 518.296 255.226 517.013 257.409 516.436C259.372 515.919 261.014 515.496 261.475 513.077C261.775 511.599 262.897 512.069 263.538 513.001C263.918 513.542 264.119 514.271 264.199 514.938C265.821 531.588 274.454 545.444 282.205 559.592C288.594 571.233 297.427 581.118 305.759 591.365C311.988 599.032 317.476 607.314 323.325 615.309C324.246 616.559 324.867 618.844 326.589 618.35C328.212 617.887 327.991 615.58 328.212 613.967C330.155 599.597 330.515 585.148 330.335 570.671C330.315 569.03 330.515 567.39 330.615 565.745C331.997 564.433 333.399 563.122 334.801 561.808C336.323 563.037 335.963 564.796 336.023 566.402C336.624 578.947 335.142 591.443 335.102 603.977C335.102 608.728 332.959 613.054 331.717 617.565C330.475 622.127 331.436 624.308 334.962 626.305C337.425 627.699 339.708 627.715 341.771 625.688C348.742 618.834 355.912 612.155 362.101 604.54C363.423 602.903 363.663 601.083 363.303 599.092C362.542 594.882 361.6 590.732 359.958 586.748C359.317 585.172 358.135 583.569 359.117 581.674Z" fill="black"/>
<path d="M331.675 848.237C330.768 848.12 330.063 847.884 329.761 846.987C329.378 845.904 330.285 845.576 330.929 845.113C336.187 841.373 336.65 840.335 334.837 834.609C330.97 822.471 327.001 810.369 323.073 798.25C322.912 797.731 322.65 797.239 322.489 796.711C322.046 795.023 321.059 793.36 319.528 792.957C317.836 792.503 317.393 794.681 316.426 795.741C316.083 796.135 315.741 796.56 315.338 797.062C313.263 795.297 314.895 793.65 315.459 792.225C322.55 774.682 328.996 756.936 333.951 738.647C340.014 716.169 345.675 693.582 353.188 671.492C354.719 667.02 356.915 665.936 360.299 664.816C363.159 663.872 366.04 662.951 368.9 662.022C376.011 659.726 382.215 656.215 386.445 649.775C387.352 648.411 388.339 646.278 390.635 647.342C392.186 648.065 392.428 653.189 390.998 654.529C390.011 655.456 388.802 656.171 387.594 656.801C380.543 660.471 373.634 664.426 366.141 667.23C361.085 669.123 357.821 672.819 356.21 678.041C352.201 690.878 348.898 703.899 345.795 716.972C344.506 722.375 347.326 727.204 348.394 732.219C350.126 740.351 350.65 748.578 351.355 756.789C352.503 769.505 355.384 781.966 356.592 794.667C356.713 796.129 357.237 797.69 358.023 798.933C361.246 804.074 363.159 809.414 362.072 815.641C361.689 817.786 363.3 819.502 364.731 821.019C367.531 823.966 369.061 827.62 370.371 831.593" fill="black"/>
<path d="M714.003 622.333C715.045 620.915 714.934 618.622 717.195 618.099C719.323 628.142 722.449 638 721.695 648.519C720.986 658.463 721.562 671.366 716.774 679.71C702.63 704.399 685.073 725.931 670.553 750.376C666.008 758.009 656.276 762.176 653.594 770.895C655.7 771.921 657.34 770.642 659.025 769.913C669.245 765.526 679.42 761.081 689.64 756.763C690.659 756.324 692.122 754.863 693.142 756.572C693.918 757.895 693.009 759.112 691.923 760.157C689.418 762.553 686.758 764.717 683.521 766.033C616.595 793.172 561.152 863.699 494.247 890.821C489.415 892.783 484.338 893.952 479.262 895.235C476.845 895.85 475.005 895.664 473.121 893.772C474.096 892.228 475.692 891.443 477.288 890.869C501.785 882.067 543.794 854.161 568.112 844.856C602.784 831.587 611.696 798.836 646.389 785.641C649.16 784.586 646.345 773.393 647.83 770.724C667.205 735.907 694.76 707.487 715.045 673.219C722.072 661.323 719.39 644.617 715.399 631.263C714.535 628.392 713.914 625.393 714.003 622.333Z" fill="black"/>
<path d="M484.589 778.729C489.341 784.197 495.56 787.892 501.144 792.322C506.203 796.334 512.4 796.351 518.488 794.617C526.876 792.234 534.496 788.056 542.03 783.882C563.14 772.168 585.105 762.266 606.938 751.973C626.056 742.964 643.597 730.963 661.094 719.079C665.562 716.041 668.211 711.099 671.628 706.953C673.598 704.538 675.788 702.304 678.526 699.304C677.453 704.908 676.708 709.496 675.679 714.011C675.022 716.792 673.226 718.772 670.554 720.09C664.291 723.196 658.116 726.485 651.897 729.682C650.32 730.495 648.656 731.184 647.298 732.7C648.634 734.432 650.276 734.18 651.962 733.58C654.678 732.608 657.349 731.572 660.043 730.53C661.204 730.081 662.802 729.279 663.437 730.361C664.226 731.699 662.759 732.884 661.707 733.733C657.963 736.699 653.78 738.86 648.94 738.902C642.852 738.952 637.378 740.739 632.056 743.5C595.792 762.298 559.79 781.598 522.365 798.075C510.583 803.252 503.947 802.36 494.597 793.697C493.261 792.449 491.881 791.424 489.998 791.163C483.691 790.298 478.698 787.003 474.493 782.483C470.42 778.085 465.756 774.606 460.347 771.986C449.266 766.61 439.521 759.27 430.214 751.263C422.067 744.269 417.797 734.997 414.403 725.164C407.329 704.717 400.212 684.281 393.095 663.843C392.35 661.657 391.584 659.485 392.351 656.859C394.212 657.762 396.117 658.515 396.161 660.786C396.27 666.607 398.416 671.803 401.176 676.724C408.402 689.622 410.855 704.33 416.877 717.695C421.301 727.477 425.462 737.318 432.732 745.449C436.63 749.814 440.966 753.896 446.397 755.856C454.084 758.622 459.712 763.917 465.624 769.015C470.223 772.972 474.734 777.054 479.508 780.788C480.428 781.512 482.837 785.47 483.866 780.47C483.538 779.649 483.078 778.779 484.589 778.729Z" fill="black"/>
<path d="M146.994 792.764C165.124 800.806 182.78 809.969 202.013 815.319C210.546 817.694 219.256 818.681 228.084 818.752C233.05 818.792 237.957 819.302 242.903 819.779C264.914 821.901 282.906 807.522 287.674 785.699C288.423 782.377 287.556 780.048 284.167 778.446C279.615 776.296 275.28 774.461 269.998 775.724C265.919 776.7 264.008 773.068 261.958 770.463C259.968 767.956 262.155 766.084 263.555 764.327C265.663 761.65 268.402 759.918 271.93 759.642C275.93 759.333 278.551 761.01 279.851 764.782C280.206 765.816 280.462 766.876 280.797 767.921C282.906 774.688 286.807 776.85 293.705 775.074C295.557 774.597 297.291 773.638 299.262 773.716C300.385 773.76 301.685 773.833 301.922 775.07C302.119 776.016 301.173 776.97 300.306 777.261C296.917 778.389 293.901 779.774 292.837 783.601C290.118 793.334 285.448 802.729 291.931 813.059C298.276 823.172 306.967 830.905 315.381 839.018C317.233 840.803 318.967 842.706 321.056 844.857C316.287 844.85 313.115 843.012 309.903 840.024C303.853 834.396 297.449 829.202 292.66 822.335C289.822 818.258 287.28 814.031 285.369 809.463C284.088 806.397 282.925 805.756 280.758 808.813C273.407 819.15 262.884 823.757 250.627 824.14C221.305 825.06 193.185 820.102 167.173 805.792C162.857 803.411 158.956 799.823 154.364 798.491C150.6 797.403 148.315 795.513 146.186 792.758C146.462 792.451 146.738 792.437 146.994 792.764Z" fill="black"/>
<path d="M555.892 656.154C554.464 655.294 553.299 654.198 552.573 652.699C568.837 636.373 582.574 617.396 602.421 604.763C604.926 603.178 607.454 601.965 610.333 601.548C611.41 601.394 612.861 600.381 613.476 602.211C614.004 603.743 612.465 603.917 611.696 604.464C603.959 609.921 596.201 615.394 587.827 619.851C585.981 620.823 584.223 621.823 584.552 624.951C591.827 622.106 598.948 619.427 606.004 616.541C619.982 610.801 634.729 607.737 649.235 603.719C662.489 600.055 674.621 601.2 686.995 605.77C688.863 606.453 690.445 607.434 691.522 609.289C687.61 612.036 683.478 610.223 679.808 609.26C658.576 603.684 638.861 610.174 618.18 616.21C620.927 617.599 623.103 617.188 625.147 617.036C634.07 616.379 642.972 615.57 651.895 614.88C654.049 614.715 657.28 614.678 657.367 616.893C657.455 618.845 654.268 619.522 651.983 619.711C638.971 620.794 625.96 622.245 612.927 622.896C595.783 623.748 581.849 631.034 569.739 642.602C565.079 647.07 560.486 651.635 555.892 656.154Z" fill="black"/>
<path d="M566.011 487.024C566.742 491.261 562.874 490.256 560.941 491.444C560.468 484.921 561.091 478.655 564.099 472.648C566.398 468.095 566.763 463.243 564.808 458.282C563.347 454.563 566.119 448.328 570.265 445.552C572.779 443.876 575.53 442.544 577.979 440.829C583.05 437.333 585.456 432.649 584.274 426.328C583.329 421.191 584.833 416.547 587.755 412.295C590.699 407.992 594.179 404.049 596.543 399.352C596.779 398.875 597.166 398.441 597.596 398.102C599.1 396.888 601.141 395.379 602.666 396.514C603.934 397.453 602.409 399.522 601.549 400.843C598.262 406.069 594.76 411.167 591.515 416.423C587.626 422.693 589.152 425.971 596.242 426.97C597.789 427.187 599.229 427.523 600.282 428.801C602.903 431.99 605.524 435.163 608.167 438.337C610.23 440.801 611.24 443.53 610.208 447.021C607.437 445.715 605.718 443.366 604.192 440.855C602.538 438.13 600.797 435.513 598.004 433.801C595.984 432.568 594.867 433.098 594.781 435.468C594.674 438.496 594.609 441.523 594.631 444.55C594.631 446.512 595.576 447.775 597.424 448.71C599.444 449.744 602.688 449.112 603.182 452.442C603.44 454.258 602.043 456.166 598.627 459.058C596.371 456.041 594.094 453.05 591.902 449.999C590.119 447.537 589.431 444.81 590.226 441.796C590.441 441.001 590.656 440.163 590.634 439.357C590.527 437.426 591.902 434.566 589.474 433.898C587.54 433.375 587.368 436.338 586.595 437.832C584.06 442.677 580.02 445.913 575.272 448.302C572.93 449.492 571.211 451.157 570.394 453.572C569.471 456.333 570.008 458.774 572.844 460.24C575.379 461.561 578.215 462.216 580.686 463.808C582.448 464.941 582.835 462.983 583.436 461.806C585.649 457.545 586.552 456.866 590.527 456.512C589.474 460.744 587.326 464.378 585.177 467.968C584.06 469.818 582.298 470.433 580.192 469.279C579.483 468.886 578.688 468.651 577.936 468.282C572.436 465.501 568.804 467.753 568.396 474.139C568.289 475.768 569.384 476.189 570.48 476.786C572.801 478.045 574.821 479.687 576.582 481.653C577.377 482.542 577.829 483.726 577.163 484.682C576.368 485.821 575.078 485.148 574.155 484.656C572.844 483.943 571.662 482.961 570.437 482.082C569.17 481.178 567.623 480.177 566.29 481.092C565.195 481.863 565.56 483.591 565.839 484.97C565.99 485.638 565.968 486.337 566.011 487.024Z" fill="black"/>
<path d="M367.026 499.745C365.467 501.016 364.227 499.733 362.867 499.267C360.468 498.451 359.248 499.279 360.048 501.816C362.267 508.945 359.588 515.745 358.788 522.666C358.588 524.42 356.909 525.027 355.409 525.183C353.749 525.353 354.089 523.778 353.829 522.81C353.169 520.452 352.189 519.179 349.29 518.499C345.811 517.683 346.491 513.44 346.211 510.644C345.911 507.753 346.731 504.942 351.05 505.356C353.029 505.545 354.149 503.254 355.429 501.9C357.608 499.645 355.569 498.667 353.989 497.491C352.989 496.753 352.909 495.554 353.409 494.486C353.929 493.334 354.809 492.162 356.189 492.434C358.688 492.926 359.648 492.128 359.868 489.567C360.028 487.985 360.308 485.706 362.907 486.069C365.067 486.369 366.346 487.703 366.346 489.979C366.366 491.67 366.347 493.344 368.326 494.062C367.906 495.955 367.466 497.851 367.026 499.745Z" fill="black"/>
<path d="M326.207 714.294C322.121 721.795 310.89 723.281 303.094 720.302C298.91 718.702 295.436 717.875 292.831 723.154C291.133 726.636 284.422 727.232 281.422 724.921C278.146 722.414 277.218 717.283 279.705 713.925C281.324 711.73 283.297 709.747 285.33 707.909C287.916 705.562 291.094 705.718 293.225 708.578C299.699 717.371 308.265 718.305 317.877 715.469C320.522 714.685 323.108 713.771 326.207 714.294Z" fill="black"/>
<path d="M314.232 750.19C309.217 754.814 303.81 754.52 298.52 752.846C293.466 751.249 288.826 750.732 283.851 753.257C280.744 754.85 274.019 752.032 273.134 749.356C271.64 744.772 274.609 738.094 279.014 736.122C283.615 734.075 287.036 735.434 289.396 740.251C293.565 748.662 298.147 751.017 307.566 749.808C309.532 749.556 311.597 749.104 314.232 750.19Z" fill="black"/>
<path d="M285.136 464.952C284.061 463.974 282.79 463.137 281.949 461.986C280.542 460.066 279.154 460.623 277.629 461.581C278.254 450.885 278.802 440.183 279.525 429.495C279.857 424.508 281.734 422.473 286.563 422.078C289.476 421.839 289.594 420.277 289.339 418.197C289.105 416.314 288.088 414.529 288.733 412.205C290.962 413.736 292.546 415.679 293.699 417.906C295.693 421.667 294.442 424.94 290.336 425.816C286.035 426.737 284.432 429.436 284.1 433.337C283.201 443.913 283.533 454.455 285.136 464.952Z" fill="black"/>
<path d="M560.595 608.376C564.498 607.693 567.569 608.604 570 611.599C570.832 612.633 572.026 613.403 573.157 614.192C573.69 614.572 574.373 614.776 575.012 614.953C575.738 615.148 576.868 614.602 576.612 614.267C573.647 610.274 582.818 610.199 579.171 606.166C577.614 604.424 575.29 601.775 577.124 600.38C578.915 598.992 581.496 601.496 583.095 603.477C585.271 606.201 585.42 608.809 582.925 611.541C579.918 614.813 576.825 617.865 572.794 619.863C570.533 620.983 568.465 621.034 566.929 618.903C564.54 615.612 562.152 612.296 560.595 608.376Z" fill="black"/>
<path d="M78.3603 629.512C80.3964 629.346 82.9095 630.1 85.0006 631.775C88.9627 634.952 92.7965 638.28 96.6485 641.598C97.2539 642.113 97.9142 642.86 98.0243 643.575C98.2444 645.272 98.9415 647.572 97.419 648.502C96.2083 649.247 94.9059 647.286 93.9153 646.253C92.3745 644.689 91.0539 642.911 89.5314 641.317C82.8545 634.272 78.507 633.388 69.4272 636.9C68.1615 637.392 66.3457 639.013 65.3551 637.37C64.3462 635.701 66.3823 634.457 67.5196 633.384C70.3628 630.737 73.8296 629.578 78.3603 629.512Z" fill="black"/>
<path d="M140.357 504.59C142.104 502.319 143.869 502.462 145.841 503.097C154.817 505.998 161.953 511.031 165.841 519.977C166.423 521.354 167.118 522.696 167.869 523.998C168.695 525.414 170.01 527.203 168.319 528.274C166.592 529.363 165.615 527.128 164.62 525.988C163.024 524.124 161.409 522.219 160.132 520.129C155.493 512.548 148.338 508.161 140.357 504.59Z" fill="black"/>
<path d="M365.389 555.488C366.071 554.635 366.693 553.738 367.435 552.939C368.599 551.669 370.144 551.565 371.589 552.165C373.295 552.865 372.873 554.224 372.452 555.646C371.73 558.054 372.733 559.284 375.281 559.342C376.846 559.377 378.813 558.821 379.395 561.032C379.736 562.338 379.074 563.783 377.849 564.036C375.943 564.437 373.756 565.049 372.271 562.822C370.586 560.273 368.479 558.155 365.649 556.858C365.569 556.401 365.489 555.943 365.389 555.488Z" fill="black"/>
<path d="M425.294 535.309C426.089 534.119 426.537 532.177 428.412 532.686C430.266 533.191 429.206 535.029 429.247 536.223C429.369 540.474 429.329 544.732 429.288 548.989C429.268 550.014 429.634 551.471 428.106 551.648C426.517 551.831 426.089 550.578 426.007 549.215C425.926 548.149 426.252 546.986 425.315 546.108C425.315 542.509 425.315 538.909 425.294 535.309Z" fill="black"/>
<path d="M303.044 746.562C302.003 738.408 305.95 728.405 310.428 727.611C308.013 733.763 308.955 740.814 303.044 746.562Z" fill="black"/>
<path d="M303.822 481.395C301.999 481.171 300.215 480.95 298.392 480.726C294.982 475.636 292.12 470.307 292.003 463.639C295.942 469.558 299.882 475.475 303.822 481.395Z" fill="black"/>
<path d="M657.088 413.627C656.609 410.099 653.427 408.391 651.75 405.652C651.183 404.737 650.334 404.02 649.636 403.166C648.874 402.177 649.048 400.948 649.593 400.079C650.355 398.852 651.423 399.861 652.403 400.122C654.408 400.658 655.105 402.743 656.783 403.643C657.763 403.748 658.853 403.519 659.332 404.722C658.003 406.533 657.023 408.343 659.332 410.156C660.552 412.583 657.328 412.137 657.088 413.627Z" fill="white"/>
<path d="M287.913 474.576C287.562 475.141 287.172 475.709 286.821 476.276C285.787 477.879 284.773 479.937 282.452 478.677C280.307 477.505 279.858 475.12 280.443 472.965C281.067 470.732 283.096 471.212 284.831 471.518C285.495 471.633 286.196 471.567 286.86 471.584C287.601 472.444 287.913 473.454 287.913 474.576Z" fill="black"/>
<path d="M290.987 771.884C290.869 765.79 293.726 761.973 295.741 757.873C295.897 757.522 296.68 757.295 297.149 757.311C297.893 757.338 297.932 758.1 297.775 758.555C296.269 762.912 296.112 767.962 290.987 771.884Z" fill="black"/>
<path d="M272.942 482.338C273.778 481.875 274.596 481.424 275.432 480.943C276.463 480.33 277.222 478.313 278.739 479.801C280.023 481.056 279.576 482.857 279.167 484.443C278.739 486.129 277.669 486.443 276.074 485.793C274.712 485.227 273.487 486.404 272.144 486.486C271.814 484.988 272.28 483.647 272.942 482.338Z" fill="black"/>
<path d="M578.878 524.464C579.603 524.811 580.328 525.436 581.053 525.468C585.362 525.654 585.511 528.777 585.746 531.872C585.341 532.418 584.871 532.448 584.317 532.121C579.923 531.801 578.856 528.591 578.153 525.059C578.387 524.858 578.643 524.662 578.878 524.464Z" fill="black"/>
<path d="M659.342 410.155C658.905 410.454 658.164 411.091 658.077 411.006C656.288 409.433 657.379 407.305 657.226 405.44C657.073 403.717 658.578 404.838 659.342 404.721C663.812 406.535 659.669 408.345 659.342 410.155Z" fill="black"/>
<path d="M484.599 778.728C484.35 779.308 484.102 779.89 483.874 780.47C482.756 777.732 480.478 775.947 478.49 773.92C477.703 773.114 476.771 772.155 477.91 771.205C479.152 770.169 479.712 771.642 480.271 772.396C481.762 774.466 483.149 776.612 484.599 778.728Z" fill="black"/>
<path d="M245.373 503.923C243.427 503.312 241.482 502.704 239.152 501.977C241.521 500.157 243.523 497.226 245.295 502.089C245.873 503.667 247.626 502.661 248.358 503.726C247.356 503.792 246.374 503.857 245.373 503.923Z" fill="white"/>
<path d="M346.931 454.852C347.428 456.393 349.157 456.981 347.984 458.281C347.706 458.609 346.493 458.623 346.136 458.303C344.804 457.106 346.215 456.265 346.931 454.852Z" fill="black"/>
<path d="M486.111 685.131C486.794 686.912 485.654 688.281 485.157 689.755C484.701 688.128 483.893 686.437 486.111 685.131Z" fill="black"/>
<path d="M147.015 792.762L146.624 792.818L146.195 792.757C144.369 792.999 143.716 791.558 142.859 790.38C142.878 790.075 142.878 789.767 142.878 789.462C144.257 790.561 145.636 791.663 147.015 792.762Z" fill="black"/>
<path d="M218.862 536.045C210.626 579.31 192.976 618.774 171.198 656.742C156.802 681.843 143.442 707.541 129.696 733.007C126.097 739.671 121.949 745.974 117.74 752.256C117.211 753.042 117.049 754.517 115.503 754.112C113.937 753.699 113.043 752.439 113.327 751.029C113.856 748.376 113.124 747.032 110.481 746.078C109.362 745.673 108.773 743.713 108.02 742.418C105.031 737.322 102.103 732.196 99.0935 727.108C97.8328 724.953 98.0362 724.005 100.863 723.928C106.149 723.782 106.698 723.153 106.475 717.738C105.844 702.203 105.641 686.67 103.465 671.198C101.737 658.926 105.804 647.655 113.226 638C126.829 620.33 140.128 602.363 156.7 587.189C159.16 584.922 159.913 585.388 161.052 588.11C164.61 596.716 168.331 605.256 171.991 613.817C172.215 614.321 172.418 614.86 172.764 615.262C178.519 621.834 177.116 628.41 172.622 634.82C157.88 655.829 146.96 678.929 135.532 701.772C129.046 714.784 122.254 727.653 115.666 740.614C114.934 742.036 113.775 743.353 114.019 745.753C118.086 743.347 120.546 739.856 122.397 736.029C141.389 696.876 163.532 659.422 183.765 620.944C197.775 594.229 206.58 565.484 212.192 535.829C213.493 528.812 214.042 521.648 215.1 514.578C215.364 512.874 214.897 509.814 217.255 510.001C219.35 510.17 221.037 512.414 221.098 515.166C221.22 522.226 220.183 529.127 218.862 536.045ZM202.147 703.773C204.201 717.846 198.121 728.613 187.12 736.936C181.406 741.259 174.899 744.321 168.88 748.14C155.582 756.548 143.89 766.544 136.63 781.541C131.161 774.611 125.548 768.541 121.115 761.577C119.468 758.97 119.997 755.973 121.685 753.411C144.052 719.56 162.19 683.368 180.776 647.425C181.528 645.991 182.321 644.582 183.501 642.368C189.398 652.271 192.976 662.161 195.782 672.328C198.649 682.652 200.601 693.197 202.147 703.773ZM419.153 372.162C416.591 364.522 412.626 357.32 404.533 354.207C398.656 351.95 393.389 348.948 388.509 345.091C383.853 341.415 379.217 337.748 374.641 333.989C359.94 321.902 342.452 319.421 324.274 319.269C318.763 319.224 313.293 319.254 307.884 320.598C290.336 324.944 277.058 335.516 266.566 349.634C258.859 359.957 251.722 370.669 249.098 383.779C247.187 393.165 240.416 399.82 234.519 406.897C229.801 412.553 224.23 417.686 222.806 425.466C221.952 430.112 222.217 434.771 222.217 439.435C222.217 445.241 221.18 446.331 215.364 446.796C209.914 447.231 206.885 449.824 206.58 455.221C206.092 464.151 205.949 473.104 205.848 482.049C205.827 484.61 205.034 486.023 202.371 486.009C192.997 485.954 183.602 486.118 174.249 485.76C165.322 485.419 156.395 484.418 147.468 483.91C138.094 483.375 132.828 486.934 129.473 495.722C128.985 496.997 128.456 498.258 128.029 499.551C124.348 510.513 118.411 520.105 110.867 528.84C90.8989 551.997 68.8974 573.567 54.9075 601.413C53.2401 604.75 53.9517 607.645 53.606 610.744C53.5653 611.19 54.3177 612.052 54.8261 612.176C56.0664 612.473 55.8836 611.326 56.1073 610.579C56.9206 607.662 58.3236 604.994 59.7877 602.348C70.4427 583.226 84.0057 566.212 98.7682 550.234C113.266 534.554 126.362 518.191 134.15 497.993C136.895 490.82 144.154 487.357 151.8 489.28C158.693 491.019 165.667 491.265 172.642 491.31C183.216 491.377 193.81 492.65 204.343 490.677C205.461 490.47 207.434 489.703 207.292 492.154C207.027 496.609 208.064 500.537 211.033 504.004C212.029 505.169 211.562 506.959 211.379 508.431C209.976 519.206 208.532 529.971 206.641 540.681C201.923 567.685 192.427 593.035 180.369 617.989C179.942 617.391 179.657 617.078 179.474 616.72C173.862 606.037 169.429 594.806 164.508 583.808C163.146 580.755 164.813 577.939 168.311 576.776C171.951 575.562 175.672 574.547 179.373 573.563C181.345 573.037 182.789 572.115 183.378 569.976C179.007 568.158 175.977 572.547 172.012 572.16C171.605 569.411 174.228 567.782 174.391 564.976C171.829 565.434 170.324 566.928 168.718 568.368C147.651 587.346 129.269 608.721 112.29 631.383C106.597 638.988 106.454 638.946 99.0325 632.475C96.0434 629.856 92.9322 627.723 88.3774 628.301C91.4275 632.386 95.8808 634.303 99.2766 637.484C102.266 640.3 104.665 643.572 102.266 647.616C97.1415 656.283 97.7311 665.591 98.6868 674.913C99.9882 687.65 101.879 700.328 101.574 713.188C101.534 715.365 101.188 717.909 99.2561 718.525C97.3244 719.143 94.9658 718.029 93.3797 716.311C92.668 715.512 92.0783 714.55 91.5496 713.586C89.8822 710.442 88.1741 707.313 86.6694 704.088C74.2859 677.45 63.4682 650.241 56.7782 621.527C56.5139 620.368 56.5343 618.825 54.7855 618.965C53.0775 619.1 52.5895 620.74 52.7521 621.881C53.6672 627.803 54.9278 633.76 56.5749 639.417C58.3846 645.658 62.4922 651.232 62.6142 658.119C62.6142 658.519 62.6345 659.076 62.8785 659.292C66.376 662.375 66.4573 667.198 68.938 670.964C72.8015 676.861 73.5539 684.348 76.4616 690.903C77.6207 693.547 78.3731 696.668 79.3898 699.468C81.6469 705.762 84.697 711.776 87.4828 717.881C90.0652 723.56 94.2336 728.217 97.9751 733.078C99.6222 735.224 99.6426 738.626 101.757 739.577C104.706 740.913 105.54 743.156 106.434 745.633C108.468 751.288 111.131 756.648 115.117 761.133C118.391 764.828 119.997 769.456 122.884 773.397C125.955 777.633 128.456 782.525 133.56 784.241C137.383 785.53 140.351 787.434 142.853 790.38C142.954 790.38 143.056 790.28 143.137 790.079C143.219 789.878 143.137 789.67 142.893 789.461C140.291 786.39 140.534 783.43 142.71 780.115C148.139 771.85 154.748 764.731 162.719 758.895C171.605 752.396 181.589 747.652 190.414 741.017C204.77 730.201 210.057 716.413 206.315 698.695C204.099 688.242 202.167 677.658 202.106 666.864C202.045 659.562 202.859 652.366 203.997 645.168C205.482 635.812 206.885 626.43 206.295 616.899C206.173 614.831 206.844 612.222 208.512 612.015C210.545 611.761 211.745 614.217 212.192 616.277C216.645 636.345 230.228 648.385 247.939 656.588C261.645 662.924 275.391 661.978 288.994 655.992C289.99 655.548 291.271 654.957 291.068 653.729C290.844 652.199 289.319 652.773 288.364 652.789C286.859 652.809 285.334 653.051 283.87 653.391C274.069 655.664 264.288 656.126 254.507 653.188C236.695 647.84 225.369 635.245 217.011 619.441C211.826 609.63 210.24 599.302 212.944 588.338C214.713 581.154 216.015 573.846 217.418 566.574C220.204 552.151 222.867 537.708 225.694 523.291C227.056 516.245 230.411 510.839 237.854 508.653C240.68 507.827 243.222 506.05 245.377 503.921C244.218 502.058 242.205 501.953 240.619 501.607C241.778 501.149 243.262 500.155 244.34 502.056C245.235 503.659 246.963 503.309 248.367 503.726C249.566 504.891 248.407 505.743 247.899 506.589C246.496 508.976 246.252 511.796 248.305 513.329C250.745 515.155 252.718 513.022 254.406 510.967C259.001 505.401 261.035 498.789 262.987 492.013C265.061 484.776 264.654 476.653 270.348 470.614C271.019 469.924 271.202 468.533 271.141 467.496C270.734 460.076 272.564 453.098 274.821 446.119C276.468 441.015 276.427 435.852 273.113 430.669C271.527 436.332 270.144 441.607 268.578 446.831C266.769 452.917 265.427 453.464 259.835 450.776C257.984 449.891 256.134 448.992 254.04 447.976C255.565 446.965 256.805 446.308 257.842 445.432C261.726 442.162 265.081 438.341 264.939 432.997C264.776 427.239 263.78 421.507 263.271 415.752C262.417 406.032 260.201 396.439 260.567 386.603C260.669 384.031 261.096 380.531 263.373 380.358C265.935 380.167 266.443 383.785 266.891 386.144C268.172 392.89 269.189 399.688 270.429 406.445C270.937 409.204 271.161 412.194 274.191 413.816C276.895 408.668 277.526 403.381 276.509 397.744C275.533 392.459 273.865 387.386 272.381 382.252C270.714 376.401 271.019 370.832 274.516 365.698C276.672 362.56 279.457 360.74 284.093 361.915C280.413 367.822 274.008 372.693 278.888 380.749C282.243 386.286 281.389 395.219 290.966 395.243C292.553 392.02 283.707 390.428 290.173 386.691C285.415 385.546 285.273 385.438 283.443 381.607C285.537 380.879 287.672 380.584 289.909 380.474C296.843 380.133 299.202 376.501 296.762 369.951C295.847 367.519 294.423 365.279 293.589 362.828C291.231 355.978 287.408 351.364 279.335 352.531C279.274 352.541 279.193 352.371 279.112 352.283C283.178 345.799 284.582 345.13 289.096 347.228C291.393 348.298 293.203 349.894 294.932 351.708C295.948 352.781 297.656 353.302 298.693 352.657C300.341 351.639 298.754 350.166 298.287 349.05C297.656 347.549 296.64 346.195 295.725 344.831C293.508 341.573 294.179 338.903 297.311 336.711C302.597 333 307.905 329.32 313.192 325.595C315.672 323.842 318.173 323.614 321.041 325.204C318.905 327.372 316.77 329.303 314.9 331.453C307.234 340.221 308.779 351.976 318.275 358.593C320.004 359.805 322.301 359.292 323.826 360.952C327.365 364.85 332.082 366.696 336.962 368.296C341.375 369.744 345.848 371.056 349.834 373.579C356.402 377.729 357.256 377.493 361.241 370.712C361.526 370.24 361.872 369.803 362.156 369.339C365.918 363.457 365.796 363.103 359.635 359.827C355.751 357.769 352.03 355.419 348.065 353.564C345.543 352.391 349.793 347.381 344.811 348.208C341.659 348.733 339.606 346.886 337.328 345.469C334.766 343.871 332.326 342.098 329.927 340.249C328.483 339.135 327.121 338.566 325.433 339.493C324.131 340.188 322.586 340.522 321.752 339.249C321.081 338.23 321.834 336.849 322.566 335.812C324.131 333.574 326.002 331.601 329.032 332.465C332.55 333.472 335.681 332.496 338.447 330.688C342.88 327.787 346.58 328.6 350.464 331.703C357.662 337.464 365.044 343.025 372.323 348.688C374.926 350.717 377.529 352.509 381.067 352.812C383.324 353.003 385.764 353.544 387.513 355.264C390.746 358.479 394.833 359.382 399.124 359.847C401.747 360.132 404.654 360.551 406.302 362.576C412.3 369.986 417.831 377.699 417.79 387.911C417.75 395.198 415.147 401.872 413.073 408.692C412.26 411.348 410.673 412.848 407.867 413.589C407.4 408.977 409.067 404.867 410.043 400.656C411.812 393.008 404.167 382.892 396.765 383.073C395.667 383.102 394.325 382.888 393.898 384.163C393.308 385.863 395.016 385.125 395.647 385.586C396.562 386.272 395.992 387.03 395.626 387.744C394.975 389.013 394.914 390.363 394.853 391.76C394.65 398.086 394.488 404.42 394.061 410.734L372.079 465.497C371.449 467.826 371.713 470.178 372.181 472.452C372.832 475.711 372.344 477.877 368.44 478.097C366.264 478.217 365.369 479.707 365.45 481.795C365.532 483.924 366.447 485.598 368.582 486.141C370.432 486.612 372.547 486.236 373.116 484.317C373.93 481.651 375.8 481.106 378.037 480.714C387.187 470.262 396.379 459.851 405.468 449.33C408.091 446.274 410.348 442.577 410.002 438.536C409.108 428.205 412.26 418.938 416.896 410.13C423.443 397.716 423.464 384.995 419.153 372.162Z" fill="black"/>
<path d="M252.473 429.636C252.473 430.496 252.531 430.92 252.454 431.317C252.164 432.729 251.123 433.041 249.966 432.712C246.591 431.759 243.486 430.206 241.692 427.134C241.094 426.114 242.174 424.766 243.679 424.608C246.803 424.284 246.167 422.405 245.453 420.46C244.643 418.275 244.064 415.989 243.042 413.918C241.596 411.002 243.428 409.808 245.511 409.004C247.922 408.069 249.117 409.812 249.638 411.802C251.239 417.79 251.817 423.95 252.473 429.636Z" fill="white"/>
<path d="M400.799 443.353C400.839 446.245 396.417 451.764 393.448 451.918C390.58 452.065 389.146 449.765 388.278 447.398C387.187 444.476 389.631 439.039 392.377 437.828C395.71 436.363 400.738 439.675 400.799 443.353Z" fill="white"/>
<path d="M194.997 650.416C185.981 645.139 185.413 633.862 193.652 625.777C196.285 633.893 195.262 641.967 194.997 650.416Z" fill="white"/>
<path d="M255.014 483.983C257.486 483.253 257.254 484.97 257.119 486.942C256.829 490.803 254.048 491.723 251.131 491.636C248.427 491.557 245.201 491.356 244.429 487.672C244.1 486.108 244.062 484.767 246.476 484.765C249.18 484.761 251.904 484.29 255.014 483.983Z" fill="white"/>
<path d="M404.988 428.597C405.838 432.211 405.19 435.355 404.179 438.445C400.255 434.271 400.377 431.536 404.988 428.597Z" fill="white"/>
<path d="M254.414 468.005C256.23 470.412 258.355 472.634 255.109 475.387C254.568 475.855 253.911 476.919 253.196 475.768C251.535 473.063 250.994 470.373 254.414 468.005Z" fill="white"/>
<path d="M240.067 485.142C238.72 482.649 236.316 480.911 237.374 478.708C237.97 477.458 240.952 477.487 242.164 478.985C244.337 481.699 240.759 482.605 240.067 485.142Z" fill="white"/>
<path d="M218.564 497.738C219.5 497.25 220.435 496.78 221.104 497.668C221.256 497.878 220.874 498.811 220.531 498.998C219.328 499.648 219.366 498.078 218.564 497.738Z" fill="white"/>
<path d="M359.121 581.676C361.478 587.217 363.515 592.854 364.474 598.851C364.914 601.613 364.654 603.867 362.577 606C356.105 612.576 349.713 619.243 343.441 625.991C340.624 629.005 337.848 629.209 334.272 627.337C330.497 625.358 328.939 622.563 330.257 618.606C336.429 600.031 334.232 580.817 334.771 561.809C335.451 543.103 329.798 526.166 320.389 510.268C319.351 508.512 318.492 506.621 317.773 504.709C317.413 503.768 317.014 502.288 318.132 501.747C319.211 501.227 320.13 502.284 320.769 503.223C323.486 507.18 326.142 511.171 328.28 515.479C338.786 536.683 348.534 558.246 358.142 579.869C358.402 580.492 358.781 581.073 359.121 581.676Z" fill="white"/>
<path d="M584.333 532.12C584.804 532.037 585.274 531.953 585.744 531.87C586.963 531.641 588.139 531.293 589.357 531.216C590.383 531.152 591.452 529.719 592.521 531.564C593.461 533.208 593.055 534.33 592.072 535.63C588.288 540.647 583.008 543.965 578.177 547.755C573.538 551.374 568.835 554.889 564.154 558.448L564.175 558.429C545.491 570.992 530.698 587.138 519.582 606.734C516.739 611.739 513.896 616.799 509.813 621.004C508.445 622.429 507.034 623.624 504.854 623.374C504.362 621.577 504.469 619.937 505.538 618.289C512.207 607.962 518.407 597.301 525.098 587.001C531.297 577.416 539.377 569.042 546.603 560.113C548.762 557.439 550.836 554.654 551.926 551.368C554.47 543.768 559.921 540.053 567.638 539.788C572.426 539.623 576.488 538.467 579.801 534.788C580.913 533.546 582.794 532.988 584.333 532.12Z" fill="white"/>
<path d="M564.148 558.45C565.24 559.054 566.396 559.454 567.681 559.328C569.544 559.141 570.721 559.598 571.021 561.827C571.385 564.585 573.013 566.394 576.075 565.871C579.137 565.353 578.066 562.801 578.28 560.91C578.323 560.366 578.28 559.814 578.259 559.266C577.809 558.381 578.666 558.148 579.051 557.692C579.993 557.857 580.957 557.932 581.878 558.203C584.04 558.859 585.004 558.079 584.918 555.833C584.875 554.872 584.833 553.897 584.918 552.945C585.132 550.656 583.933 547.936 585.668 546.163C587.573 544.189 590.807 545.456 593.376 544.033C594.533 543.39 597.402 545.519 597.273 548.206C597.145 551.124 597.466 553.985 598.194 556.767C599.286 561.073 596.931 562.807 593.376 563.777C591.663 564.242 589.95 564.769 588.194 564.951C585.818 565.195 584.854 566.265 584.854 568.681C584.854 571.289 583.783 572.803 580.657 571.931C578.987 571.467 577.102 571.846 575.304 571.732C572.67 571.565 571.492 572.709 571.642 575.377C571.814 578.297 570.636 579.115 567.574 578.631C564.148 578.081 560.55 578.237 557.017 578.426C552.114 578.691 550.229 581.372 551.214 586.214C552.135 590.661 551.6 591.282 547.253 591.659C544.983 591.854 542.97 593.505 540.422 591.858C539.459 591.239 538.538 593.066 538.56 594.43C538.602 596.353 537.532 597.457 535.947 598.269C534.769 598.879 533.42 598.654 533.163 597.562C532.671 595.629 532.328 593.436 532.799 591.575C533.185 590.111 534.919 591.224 536.076 591.451C537.189 591.67 538.281 591.102 538.281 590.126C538.345 586.601 540.893 585.661 543.463 584.571C544.062 584.314 544.962 583.815 545.026 583.351C545.411 579.785 546.825 577.621 550.85 578.094C551.557 578.177 551.771 577.154 551.75 576.456C551.643 573.177 553.12 571.608 556.461 571.711C558.966 571.788 559.33 570.066 559.244 568.077C559.159 566.477 558.431 564.831 559.715 563.186C560.358 563.544 561.043 563.946 561.75 564.287C562.842 564.824 563.998 565.61 565.133 564.42C566.246 563.225 565.968 561.951 565.133 560.657C564.704 559.987 564.49 559.178 564.169 558.43L564.148 558.45Z" fill="black"/>
<path d="M676.662 485.483C677.585 491.4 677.322 496.444 673.759 500.881C672.99 501.844 672.044 503.348 672.902 504.217C674.001 505.329 675.826 505.477 677.497 505.615C679.169 505.752 679.608 504.626 680.07 503.467C680.202 503.089 680.312 502.647 680.268 502.253C679.455 494.159 684.688 491.604 691.614 490.215C691.79 494.45 693.087 498.843 687.348 500.809C685.391 501.475 684.886 503.632 683.984 505.312C681.389 510.119 678.003 511.702 673.166 510.446C669.538 509.503 668.196 506.46 667.493 501.457C666.415 493.764 670.681 489.606 676.662 485.483Z" fill="white"/>
<path d="M440.241 606.843C440.772 606.72 441.959 606.943 442.286 607.766C442.654 608.686 441.631 609.424 440.834 609.983C434.494 614.521 428.297 619.29 421.752 623.511C415.801 627.346 412.324 626.739 408.336 622.452C407.272 621.307 407.047 620.62 408.417 619.711C409.317 619.102 410.074 618.218 411.076 617.789C419.809 613.944 428.685 610.422 437.725 607.312C438.359 607.093 439.075 607.054 440.241 606.843Z" fill="white"/>
<path d="M387.198 600.763C382.608 591.417 374.778 583.69 375.462 572.3C375.502 571.479 375.341 570.555 375.663 569.859C376.146 568.78 376.851 567.205 377.717 567.01C379.126 566.69 379.488 568.457 379.891 569.538C382.246 575.942 384.4 582.368 387.983 588.314C390.198 591.98 390.298 596.461 387.198 600.763Z" fill="white"/>
<path d="M392.508 638.459C392.042 638.59 391.334 638.354 391.375 637.514C391.436 635.602 391.739 632.594 393.418 632.647C398.658 632.815 398.577 629.084 399.588 625.833C399.952 624.684 400.013 622.208 401.389 622.75C403.209 623.456 405.556 624.468 406.042 626.92C406.446 628.914 405.576 631 403.675 631.061C400.418 631.17 399.588 632.871 398.981 635.526C398.213 638.928 394.935 637.51 392.508 638.459Z" fill="black"/>
<path d="M401.949 617.857C401.969 618.857 401.787 619.516 401.08 619.849C400.333 620.215 400.232 619.415 399.969 619.063C398.01 616.441 396.07 613.815 394.232 611.118C393.626 610.245 393.08 608.918 394.252 608.253C395.08 607.788 396.575 607.659 397.282 608.683C399.282 611.594 400.737 614.815 401.949 617.857Z" fill="white"/>
<path d="M497.931 628.684C497.703 629.691 498.077 632.022 495.54 631.934C492.775 631.841 492.858 629.19 492.546 627.337C492.317 625.929 493.253 624.784 494.979 624.736C497.307 624.669 498.139 625.902 497.931 628.684Z" fill="black"/>
<path d="M501.737 617.576C499.466 617.589 498.882 616.18 498.84 614.357C498.799 612.531 499.653 611.298 501.528 611.577C503.612 611.879 505.154 613.302 505.321 615.384C505.55 618.195 502.862 616.726 501.737 617.576Z" fill="black"/>
<path d="M492.087 633.793C490.967 634.961 492.337 637.861 489.306 637.942C487.5 637.992 486.442 637.19 486.421 635.293C486.379 633.045 487.397 631.586 489.721 631.426C491.153 631.327 492.025 632.111 492.087 633.793Z" fill="black"/>
<path d="M579.074 557.691C578.797 558.214 578.542 558.738 578.265 559.264C576.775 560.524 575.285 561.787 573.773 563.049C574.944 560.626 576.2 558.295 579.074 557.691Z" fill="black"/>
<path d="M596.83 540.704C596.552 541.592 595.931 541.874 595.225 541.836C594.327 541.789 593.556 541.361 593.556 540.4C593.535 539.448 594.412 539.501 595.075 539.51C595.931 539.523 596.638 539.844 596.83 540.704Z" fill="black"/>
<path d="M636.223 395.422C636.115 393.641 637.22 392.463 638.541 391.306C638.086 392.727 640.123 394.707 637.285 395.574C636.873 395.805 636.527 395.753 636.223 395.422Z" fill="white"/>
<path d="M283.311 469.3C282.065 469.166 281.461 468.49 281.481 467.304C281.481 467.175 281.89 466.905 282.065 466.944C283.312 467.23 283.74 468.001 283.311 469.3Z" fill="#177F4A"/>
<path d="M501.317 591.611C501.421 592.562 501.067 593.365 500.484 594.092C499.652 593.973 498.798 593.723 499.027 592.652C499.277 591.365 500.442 591.707 501.317 591.611Z" fill="black"/>
<path d="M636.215 395.424C636.562 395.474 636.908 395.524 637.276 395.575C637.081 396.34 636.886 397.108 636.627 397.853C636.605 397.883 635.674 397.768 635.588 397.558C635.285 396.755 635.414 395.963 636.215 395.424Z" fill="black"/>
<path d="M328.726 666.61C325.759 661.968 325.917 660.859 329.952 656.569C332.661 659.982 332.305 663.341 328.726 666.61Z" fill="white"/>
<path d="M275.394 768.845C274.792 770.784 272.908 771.136 271.528 771.075C269.625 770.996 266.75 770.489 266.614 768.581C266.497 766.806 267.935 764.389 270.693 764.249C273.84 764.088 274.015 766.947 275.394 768.845Z" fill="white"/>
<path d="M290.941 716.284C290.57 719.488 289.184 721.481 286.001 721.55C283.58 721.6 283.17 719.613 282.975 717.891C282.741 715.792 286.45 711.571 288.247 711.731C291.39 712.012 289.848 715.027 290.941 716.284Z" fill="white"/>
<path d="M277.737 745.051C277.815 742.411 278.673 740.304 281.732 740.585C285.298 740.91 284.227 744.192 284.772 746.24C285.435 748.748 282.901 749.288 281.459 749.356C278.868 749.483 277.679 747.632 277.737 745.051Z" fill="white"/>
<path d="M332.024 476.569C336.531 475.987 339.925 477.409 343.36 478.326C344.312 478.578 344.789 479.646 344.61 480.658C344.392 481.766 343.34 481.558 342.585 481.52C338.675 481.329 335.598 479.309 332.024 476.569Z" fill="white"/>
<path d="M439.104 586.663L451.717 610.234L444.498 609.619L441.073 602.212L433.526 590.076L439.104 586.663Z" fill="black"/>
<path d="M324.409 464.192C324.409 464.192 328.328 469.63 333.76 469.63C339.47 470.175 341.917 470.175 344.643 472.349C346.274 472.891 349 471.261 350.074 472.349C351.169 473.436 352.004 475.087 348.463 475.632C349.299 478.077 350.075 480.252 345.717 481.34C341.38 481.883 336.426 482.053 329.622 476.344C325.822 471.723 324.15 468.271 324.409 464.192Z" fill="black"/>
<path d="M337.885 473.558C337.885 473.558 339.195 475.19 342.728 475.19C343.283 474.374 344.137 472.471 340.306 471.657C338.381 472.199 336.218 472.485 337.885 473.558Z" fill="black"/>
<path d="M330.22 470.026C330.22 470.026 341.094 480.9 345.169 475.193C346.521 476.28 349.244 477.64 345.169 479.27C341.909 479.542 334.573 480.085 330.22 470.026Z" fill="black"/>
<path d="M318.203 417.832C318.203 417.832 321.259 418.241 322.291 419.465C323.303 420.688 326.16 425.783 330.227 424.561C332.271 424.152 332.886 423.132 332.886 423.132C332.886 423.132 339.255 424.97 340.267 431.289C342.073 433.327 343.224 431.289 343.224 431.289C343.224 431.289 339.831 418.65 319.215 415.795C318.203 416.814 318.203 417.832 318.203 417.832Z" fill="black"/>
<path d="M333.098 427.621C333.098 427.621 328.599 427.008 330.244 429.046C332.067 429.658 333.692 430.27 334.723 430.064C335.734 429.862 339.182 428.082 338.785 427.533C338.429 426.985 337.279 425.75 337.279 425.75C337.279 425.75 337.775 428.843 333.098 427.621Z" fill="black"/>
<path d="M351.024 427.929C343.269 435.982 335.553 434.957 326.568 434.754C317.805 433.531 315.751 430.473 310.855 425.751C306.806 409.405 320.646 407.232 320.646 407.232C320.646 407.232 325.964 406.825 336.137 409.067C350.42 412.328 353.059 423.994 353.059 423.994C353.059 423.994 352.656 426.396 351.024 427.929ZM391.194 421.706C391.194 421.706 385.694 430.273 376.508 427.929C371.633 428.231 370.807 427.929 370.807 427.929C370.807 427.929 368.349 421.798 356.323 423.994C355.718 419.871 350.823 406.009 320.445 403.154C319.014 402.951 312.084 404.377 307.814 410.699C301.911 408.66 291.295 401.523 291.295 401.523C291.295 401.523 285.795 400.912 287.225 406.621C288.233 407.435 286.198 409.474 288.233 407.435C290.267 405.396 290.267 405.396 290.267 405.396C290.267 405.396 304.349 412.939 305.578 413.96C306.585 415.795 303.946 424.77 307.189 427.929C310.473 431.085 319.095 441.891 340.267 438.628C350.017 434.754 352.052 433.611 354.288 430.104C356.746 429.657 363.676 427.618 366.738 431.289C366.536 432.918 361.641 437.405 360.412 441.482C359.606 446.172 361.218 458.2 360.613 458.607C359.989 459.016 355.114 459.218 355.114 459.218C355.114 459.218 352.858 463.865 355.114 464.191C357.753 463.907 361.419 463.094 361.419 463.094C361.419 463.094 363.454 461.869 363.454 459.218C363.454 456.569 363.454 451.063 363.454 451.063C363.454 451.063 364.481 454.53 370.404 456.569C372.64 456.365 373.043 454.895 373.043 454.895C373.043 454.895 367.966 454.53 365.307 448.617C365.307 448.617 363.877 446.375 364.683 443.112C367.14 442.91 371.633 443.112 371.633 443.112C371.633 443.112 371.814 441.073 368.349 440.666C367.14 439.24 367.543 434.754 368.571 433.327C370.001 431.901 370.404 431.492 373.043 431.085C375.702 430.676 384.465 430.654 384.465 432.195C387.93 431.085 392.624 423.994 392.624 423.994L391.194 421.706Z" fill="black"/>
<path d="M352.61 423.597C353.047 424.455 352.55 425.46 351.595 425.468C351.117 425.47 350.659 425.514 350.401 425.629C349.585 425.991 340.27 411.572 331.573 408.179C328.787 406.215 330.697 406.215 330.697 406.215C330.697 406.215 344.907 408.255 352.61 423.597Z" fill="black"/>
<path d="M382.018 436.998C382.018 436.998 377.319 436.385 375.894 436.998C375.09 438.018 374.468 438.628 375.894 439.036C377.319 439.445 378.102 439.036 378.524 440.261C378.946 441.483 382.018 436.998 382.018 436.998Z" fill="black"/>
<path d="M340.262 500.631C340.262 500.631 348.179 486.335 357.755 480.219C364.477 474.511 370.186 470.843 371.199 466.152C372.231 461.465 369.984 455.551 372.433 450.659C374.883 445.766 378.204 440.811 380.836 438.601C383.447 436.388 385.128 434.503 385.209 431.877C388.489 429.18 389.764 428.844 391.586 414.37C392.619 401.933 393.226 393.166 392.619 391.943C391.991 390.72 398.733 382.974 402.398 391.943C406.487 400.099 409.12 405.194 404.645 413.757C400.353 422.321 398.328 429.253 398.328 429.253L389.764 436.726C389.764 436.726 384.46 438.629 382.01 445.154C379.56 451.678 383.022 459.017 383.022 459.017L378.528 473.424L359.172 492.656L346.336 503.461L340.262 500.631Z" fill="black"/>
<path d="M341.322 633.035C341.322 633.035 327.473 621.744 318.942 631.331C318.089 634.527 316.601 647.311 318.942 655.406C319.597 658.175 318.565 661.584 317.692 662.65C316.819 663.715 304.676 681.397 309.795 690.345C314.26 694.819 314.914 694.819 315.748 694.819C316.601 694.819 318.307 699.079 313.843 707.601C314.914 708.027 316.819 710.156 317.672 706.323C318.525 702.488 319.795 695.246 319.795 694.18C320.45 693.754 327.473 694.18 330.033 686.51C331.521 678.627 331.303 674.365 331.521 670.106C333.445 668.401 334.933 666.27 335.35 664.354C335.767 662.435 335.35 657.535 334.934 655.62C335.568 653.063 343.029 649.442 341.322 633.035Z" fill="black"/>
<path d="M328.317 657.323C328.317 657.323 324.538 659.668 325.053 665.633C326.398 666.699 328.317 668.025 328.317 668.025C328.317 668.025 331.938 667.763 332.373 665.419C332.788 662.226 333.857 657.111 328.317 657.323Z" fill="white"/>
<path d="M769.458 528.346C769.458 733.936 602.806 900.599 397.214 900.599C191.622 900.599 24.948 733.936 24.948 528.346C24.948 322.756 191.622 156.091 397.214 156.091C602.806 156.091 769.458 322.756 769.458 528.346Z" stroke="white" stroke-width="49.3333" stroke-miterlimit="10"/>
<path d="M915.678 859.494H899.784C862.983 859.494 833.167 829.67 833.167 792.873V656.922C833.167 620.126 862.983 590.301 899.784 590.301H915.678C945.114 590.301 970.273 609.281 979.182 635.618C981.51 642.202 976.474 648.013 969.513 648.013H953.619C946.658 648.013 938.913 642.202 933.472 637.555C928.839 633.295 922.639 630.582 915.678 630.582H899.784C885.458 630.582 873.84 642.202 873.84 656.532V792.487C873.84 806.817 885.458 818.437 899.784 818.437H915.678C924.183 818.437 931.548 814.565 936.204 808.366C940.457 802.945 947.038 796.747 954.023 796.747H969.133C976.094 796.747 981.51 802.557 979.586 809.529C971.841 838.19 945.874 859.108 914.894 859.108L915.678 859.494Z" fill="white"/>
<path d="M1078.74 859.108C1041.93 859.108 1012.1 829.283 1012.1 792.487V601.921C1012.1 594.949 1017.92 589.14 1024.9 589.14H1039.61C1046.57 589.14 1052.39 594.949 1052.39 601.921V792.487C1052.39 806.818 1064 818.438 1078.34 818.438H1094.22C1108.56 818.438 1120.17 806.818 1120.17 792.487V601.921C1120.17 594.949 1125.99 589.14 1132.95 589.14H1147.69C1154.65 589.14 1160.46 594.949 1160.46 601.921V792.487C1160.46 829.283 1130.64 859.108 1093.83 859.108H1078.74Z" fill="white"/>
<path d="M1311.14 847.1C1311.14 854.072 1305.34 859.881 1298.35 859.881H1205.39C1198.43 859.881 1192.63 854.072 1192.63 847.1V601.532C1192.63 594.561 1198.43 588.75 1205.39 588.75H1220.11C1227.1 588.75 1232.9 594.561 1232.9 601.532V813.016C1232.9 819.987 1238.72 825.797 1245.68 825.797H1298.35C1305.34 825.797 1311.14 831.606 1311.14 838.578V846.713V847.1Z" fill="white"/>
<path d="M1378.51 792.874C1378.51 807.206 1390.14 818.826 1404.49 818.826H1420.36C1434.68 818.826 1446.31 807.206 1446.31 792.874V656.922C1446.31 642.589 1434.68 630.969 1420.36 630.969H1404.49C1390.14 630.969 1378.51 642.589 1378.51 656.922V792.874ZM1338.22 792.874V656.922C1338.22 620.125 1368.06 590.301 1404.86 590.301H1420.74C1457.54 590.301 1487.35 620.125 1487.35 656.922V792.874C1487.35 829.671 1457.54 859.495 1420.74 859.495H1404.86C1368.06 859.495 1338.22 829.671 1338.22 792.874Z" fill="white"/>
<path d="M1581.85 818.826H1597.75C1611.7 818.826 1622.93 807.592 1623.32 793.648C1622.15 759.178 1603.17 749.881 1576.82 737.098C1550.5 724.316 1514.48 706.887 1514.48 656.148C1514.48 619.35 1544.29 589.525 1581.1 589.525H1596.97C1629.5 589.525 1656.63 612.767 1662.42 643.363C1663.98 650.338 1658.17 656.148 1651.18 656.148H1636.48C1629.5 656.148 1624.08 649.95 1620.58 643.752C1616.33 635.62 1607.81 630.196 1597.75 630.196H1581.85C1567.52 630.196 1555.92 641.815 1555.92 656.148C1555.92 680.549 1568.69 687.91 1595.04 700.689C1621.36 713.471 1656.63 730.514 1663.2 779.704C1663.98 786.678 1663.98 792.487 1663.98 792.487C1663.98 792.487 1663.98 792.874 1663.98 793.262C1663.98 793.648 1663.98 794.036 1663.98 794.423C1663.98 794.811 1663.98 795.198 1663.98 795.586C1663.98 796.36 1663.98 796.747 1663.98 796.747C1663.98 796.747 1663.59 802.557 1661.66 809.53C1654.31 838.191 1628.35 859.495 1597.36 859.495H1581.49C1548.93 859.495 1521.83 836.255 1516.01 805.656C1514.48 798.684 1520.26 792.874 1527.25 792.874H1541.97C1548.93 792.874 1554.38 799.072 1557.85 805.269C1562.12 813.403 1570.65 818.826 1580.71 818.826H1581.85Z" fill="white"/>
<path d="M2095.56 651.644C2106.3 634.486 2115.6 619.829 2123.1 607.319C2130.24 594.809 2134.87 585.872 2136.32 580.152C2136.32 579.078 2136.32 578.009 2136.32 577.293C2136.32 575.863 2136.32 575.146 2135.61 574.791C2134.87 574.433 2134.16 574.075 2132.74 574.075C2113.44 574.791 2092.35 587.302 2069.46 611.967C2046.24 636.632 2019.06 669.518 1988.3 710.625L1973.3 729.928H2046.95C2064.12 701.333 2080.21 675.238 2095.56 651.644ZM1994.76 863.62C1993.68 860.76 1993.34 857.543 1993.34 853.968C1993.34 850.393 1993.68 846.104 1994.76 841.457C1997.97 825.371 2005.13 806.784 2016.22 785.692C2026.94 764.603 2036.94 746.729 2045.53 732.075H1971.5C1959.74 747.444 1947.2 763.174 1933.64 779.259C1920.06 795.345 1906.1 810.357 1891.8 824.3C1877.16 838.24 1862.15 849.679 1847.14 858.616C1832.1 867.552 1816.76 871.842 1801.72 871.842C1789.58 871.842 1779.91 868.981 1773.49 863.62C1766.7 858.257 1762.4 851.467 1760.27 842.53C1759.19 838.597 1758.85 834.666 1758.85 830.376C1758.85 825.014 1759.53 819.295 1760.98 813.576C1763.82 798.919 1770.62 783.907 1781.36 768.892C1791.71 753.879 1804.96 741.367 1821.39 731.002C1837.85 720.992 1856.07 715.989 1876.79 715.989C1888.96 715.989 1897.54 718.849 1902.55 724.924C1906.1 729.214 1907.89 734.219 1907.89 739.937C1907.89 741.725 1907.89 743.514 1907.55 745.657C1904.68 757.454 1898.25 767.463 1887.88 776.399L1887.51 775.684C1897.54 767.463 1903.97 758.168 1906.47 747.444C1906.84 745.3 1907.18 743.155 1907.18 741.011C1907.18 736.005 1905.39 731.359 1901.8 726.355C1898.25 721.707 1891.09 719.204 1881.08 719.204C1864.28 719.204 1848.19 723.852 1833.18 733.504C1818.18 743.155 1805.3 755.667 1794.58 770.321C1783.87 784.978 1776.7 800.349 1773.49 816.435C1772.07 821.797 1771.7 827.159 1771.7 831.805C1771.7 840.385 1773.86 848.607 1778.86 856.828C1783.5 865.049 1793.5 868.981 1808.88 868.981C1831.76 868.981 1860.7 851.824 1895.01 817.864C1917.89 794.987 1942.94 766.39 1969.37 732.075H1962.95L1963.29 729.928H1970.82L1986.54 709.554C2015.14 671.662 2039.44 641.635 2060.17 619.471C2091.63 585.872 2116.65 569.072 2135.24 569.072C2140.24 569.072 2142.74 571.932 2142.74 577.651C2142.74 579.439 2142.37 581.582 2142.03 584.084C2138.82 598.382 2130.24 617.686 2116.28 641.993C2102.01 666.659 2086.63 692.037 2069.83 718.849C2053.03 745.657 2038.02 770.321 2024.44 793.557C2010.85 816.793 2002.97 835.38 2000.13 848.607C1999.42 851.108 1999.05 853.611 1999.05 855.755C1999.05 858.616 1999.76 861.832 2001.21 865.049C2002.63 868.267 2006.18 869.696 2011.19 869.696L2010.85 871.842C2002.26 871.842 1996.89 868.981 1994.76 863.62Z" fill="white"/>
<path d="M2095.56 651.644C2106.3 634.486 2115.6 619.829 2123.1 607.319C2130.24 594.809 2134.87 585.872 2136.32 580.152C2136.32 579.078 2136.32 578.009 2136.32 577.293C2136.32 575.863 2136.32 575.146 2135.61 574.791C2134.87 574.433 2134.16 574.075 2132.74 574.075C2113.44 574.791 2092.35 587.302 2069.46 611.967C2046.24 636.632 2019.06 669.518 1988.3 710.625L1973.3 729.928H2046.95C2064.12 701.333 2080.21 675.238 2095.56 651.644V651.644ZM1994.76 863.62C1993.68 860.76 1993.34 857.543 1993.34 853.968C1993.34 850.393 1993.68 846.104 1994.76 841.457C1997.97 825.371 2005.13 806.784 2016.22 785.692C2026.94 764.603 2036.94 746.729 2045.53 732.075H1971.5C1959.74 747.444 1947.2 763.174 1933.64 779.259C1920.06 795.345 1906.1 810.357 1891.8 824.3C1877.16 838.24 1862.15 849.679 1847.14 858.616C1832.1 867.552 1816.76 871.842 1801.72 871.842C1789.58 871.842 1779.91 868.981 1773.49 863.62C1766.7 858.257 1762.4 851.467 1760.27 842.53C1759.19 838.597 1758.85 834.666 1758.85 830.376C1758.85 825.014 1759.53 819.295 1760.98 813.576C1763.82 798.919 1770.62 783.907 1781.36 768.892C1791.71 753.879 1804.96 741.367 1821.39 731.002C1837.85 720.992 1856.07 715.989 1876.79 715.989C1888.96 715.989 1897.54 718.849 1902.55 724.924C1906.1 729.214 1907.89 734.219 1907.89 739.937C1907.89 741.725 1907.89 743.514 1907.55 745.657C1904.68 757.454 1898.25 767.463 1887.88 776.399L1887.51 775.684C1897.54 767.463 1903.97 758.168 1906.47 747.444C1906.84 745.3 1907.18 743.155 1907.18 741.011C1907.18 736.005 1905.39 731.359 1901.8 726.355C1898.25 721.707 1891.09 719.204 1881.08 719.204C1864.28 719.204 1848.19 723.852 1833.18 733.504C1818.18 743.155 1805.3 755.667 1794.58 770.321C1783.87 784.978 1776.7 800.349 1773.49 816.435C1772.07 821.797 1771.7 827.159 1771.7 831.805C1771.7 840.385 1773.86 848.607 1778.86 856.828C1783.5 865.049 1793.5 868.981 1808.88 868.981C1831.76 868.981 1860.7 851.824 1895.01 817.864C1917.89 794.987 1942.94 766.39 1969.37 732.075H1962.95L1963.29 729.928H1970.82L1986.54 709.554C2015.14 671.662 2039.44 641.635 2060.17 619.471C2091.63 585.872 2116.65 569.072 2135.24 569.072C2140.24 569.072 2142.74 571.932 2142.74 577.651C2142.74 579.439 2142.37 581.582 2142.03 584.084C2138.82 598.382 2130.24 617.686 2116.28 641.993C2102.01 666.659 2086.63 692.037 2069.83 718.849C2053.03 745.657 2038.02 770.321 2024.44 793.557C2010.85 816.793 2002.97 835.38 2000.13 848.607C1999.42 851.108 1999.05 853.611 1999.05 855.755C1999.05 858.616 1999.76 861.832 2001.21 865.049C2002.63 868.267 2006.18 869.696 2011.19 869.696L2010.85 871.842C2002.26 871.842 1996.89 868.981 1994.76 863.62V863.62Z" stroke="white" stroke-width="9.33333" stroke-miterlimit="10"/>
<path d="M2094.49 838.24C2104.14 829.302 2113.79 818.223 2123.09 805.711C2132.74 793.199 2140.61 781.404 2147.41 769.966C2154.17 758.526 2158.11 750.304 2159.19 745.657C2159.57 743.514 2159.92 741.367 2159.92 739.223C2159.92 736.005 2159.19 732.789 2157.76 729.572C2156.33 726.355 2152.39 724.924 2146.68 724.924C2139.19 724.924 2130.96 729.214 2121.66 737.793C2112.71 746.372 2103.79 756.739 2095.22 768.892C2086.61 781.404 2079.12 793.557 2073.06 805.711C2066.61 817.864 2063.03 827.516 2061.6 834.666C2060.9 837.524 2060.52 840.027 2060.52 842.172C2060.52 848.964 2063.76 852.181 2069.82 852.181C2076.61 852.181 2084.84 847.533 2094.49 838.24ZM2050.52 840.743C2050.52 836.809 2051.25 832.163 2052.33 826.801C2055.19 812.145 2061.98 796.775 2072.68 779.974C2083.06 763.53 2094.84 749.589 2108.07 737.793C2121.31 725.997 2133.44 720.278 2144.55 720.278C2152.04 720.278 2157.06 722.78 2159.57 727.427C2160.99 729.928 2161.69 733.145 2161.69 737.079C2161.69 739.58 2161.34 742.44 2160.61 745.657L2160.26 747.444C2173.5 722.78 2190.3 694.539 2211.03 662.012C2250.36 600.171 2272.52 569.072 2278.23 569.072C2280.01 569.072 2281.44 569.786 2282.52 570.856C2283.25 571.929 2283.6 573.002 2283.6 574.431V575.863C2283.25 576.936 2278.93 583.726 2271.09 596.237C2216.04 679.526 2176.71 741.726 2152.77 782.833C2137.03 809.643 2127.76 828.947 2125.25 841.1C2124.87 842.887 2124.52 844.675 2124.52 846.104C2124.52 850.036 2126.3 852.181 2129.53 852.181C2135.25 852.181 2142.77 847.892 2152.04 839.312C2160.99 830.733 2169.92 821.081 2178.49 810C2187.09 799.276 2193.85 789.983 2199.22 781.76H2199.6V782.119C2194.93 788.911 2188.52 798.204 2179.92 809.643C2171.34 821.439 2162.04 831.805 2152.77 841.457C2143.09 851.108 2134.9 856.113 2127.76 856.113C2122.36 856.113 2119.5 852.896 2119.5 846.104C2119.5 843.601 2120.23 840.385 2120.93 836.809C2123.82 822.869 2130.58 804.996 2141.69 783.191C2109.85 833.592 2084.49 858.616 2065.53 858.616C2055.53 858.616 2050.52 852.539 2050.52 840.743Z" fill="white"/>
<path d="M2094.49 838.24C2104.14 829.302 2113.79 818.223 2123.09 805.711C2132.74 793.199 2140.61 781.404 2147.41 769.966C2154.17 758.526 2158.11 750.304 2159.19 745.657C2159.57 743.514 2159.92 741.367 2159.92 739.223C2159.92 736.005 2159.19 732.789 2157.76 729.572C2156.33 726.355 2152.39 724.924 2146.68 724.924C2139.19 724.924 2130.96 729.214 2121.66 737.793C2112.71 746.372 2103.79 756.739 2095.22 768.892C2086.61 781.404 2079.12 793.557 2073.06 805.711C2066.61 817.864 2063.03 827.516 2061.6 834.666C2060.9 837.524 2060.52 840.027 2060.52 842.172C2060.52 848.964 2063.76 852.181 2069.82 852.181C2076.61 852.181 2084.84 847.533 2094.49 838.24V838.24ZM2050.52 840.743C2050.52 836.809 2051.25 832.163 2052.33 826.801C2055.19 812.145 2061.98 796.775 2072.68 779.974C2083.06 763.53 2094.84 749.589 2108.07 737.793C2121.31 725.997 2133.44 720.278 2144.55 720.278C2152.04 720.278 2157.06 722.78 2159.57 727.427C2160.99 729.928 2161.69 733.145 2161.69 737.079C2161.69 739.58 2161.34 742.44 2160.61 745.657L2160.26 747.444C2173.5 722.78 2190.3 694.539 2211.03 662.012C2250.36 600.171 2272.52 569.072 2278.23 569.072C2280.01 569.072 2281.44 569.786 2282.52 570.856C2283.25 571.929 2283.6 573.002 2283.6 574.431V575.863C2283.25 576.936 2278.93 583.726 2271.09 596.237C2216.04 679.526 2176.71 741.726 2152.77 782.833C2137.03 809.643 2127.76 828.947 2125.25 841.1C2124.87 842.887 2124.52 844.675 2124.52 846.104C2124.52 850.036 2126.3 852.181 2129.53 852.181C2135.25 852.181 2142.77 847.892 2152.04 839.312C2160.99 830.733 2169.92 821.081 2178.49 810C2187.09 799.276 2193.85 789.983 2199.22 781.76H2199.6V782.119C2194.93 788.911 2188.52 798.204 2179.92 809.643C2171.34 821.439 2162.04 831.805 2152.77 841.457C2143.09 851.108 2134.9 856.113 2127.76 856.113C2122.36 856.113 2119.5 852.896 2119.5 846.104C2119.5 843.601 2120.23 840.385 2120.93 836.809C2123.82 822.869 2130.58 804.996 2141.69 783.191C2109.85 833.592 2084.49 858.616 2065.53 858.616C2055.53 858.616 2050.52 852.539 2050.52 840.743Z" stroke="white" stroke-width="9.33332" stroke-miterlimit="10"/>
<path d="M2217.83 841.457C2225.69 834.665 2233.2 826.444 2241.05 816.434C2248.56 806.784 2255.71 796.775 2262.16 786.765C2270.02 770.68 2277.88 755.666 2286.47 741.725C2286.47 740.296 2286.47 738.865 2286.47 737.793C2286.47 728.856 2282.15 724.566 2273.24 724.566C2265.74 724.566 2257.5 728.856 2248.21 737.436C2238.91 746.014 2230.35 756.381 2221.76 768.534C2213.17 781.045 2206.02 793.199 2199.95 805.353C2193.53 817.508 2189.6 827.159 2188.16 834.308C2187.43 836.809 2187.08 839.312 2187.08 841.457C2187.08 848.248 2190.3 851.824 2196.72 851.824C2203.17 851.824 2209.98 848.248 2217.83 841.457ZM2179.22 848.248C2178.14 845.03 2177.79 841.457 2177.79 837.883C2177.79 834.308 2178.14 830.733 2179.22 826.801C2182.1 811.788 2188.87 796.059 2199.6 779.258C2210.33 762.814 2222.11 748.875 2235.34 737.078C2248.21 725.638 2260.37 719.92 2271.81 719.92C2282.54 719.92 2288.25 724.923 2288.25 735.29V738.508C2292.89 731.001 2297.16 724.209 2301.13 718.847C2303.26 716.345 2305.4 714.914 2308.28 714.914C2310.04 714.914 2311.47 715.63 2312.56 717.06C2313.26 718.133 2313.64 719.204 2313.64 720.635V722.065C2312.21 724.923 2305.76 735.647 2294.32 754.237C2283.94 770.68 2273.95 787.123 2264.65 803.566C2255.01 820.009 2249.29 832.877 2247.5 842.529C2246.77 844.316 2246.77 846.104 2246.77 847.177C2246.77 850.393 2247.85 852.181 2250.7 852.181C2255.71 852.181 2262.86 847.533 2271.81 837.883C2280.37 828.23 2288.96 817.864 2296.85 806.784C2304.67 795.701 2310.42 787.48 2313.96 781.759L2314.7 782.118C2282.89 831.805 2261.08 856.469 2249.29 856.469C2243.93 856.469 2241.05 853.253 2241.05 846.463C2241.05 843.96 2241.4 841.1 2242.49 837.524C2244.63 827.159 2249.29 814.29 2256.8 798.204C2231.41 836.453 2210.33 856.469 2193.18 858.257C2185.29 858.257 2180.66 855.04 2179.22 848.248Z" fill="white"/>
<path d="M2217.83 841.457C2225.69 834.665 2233.2 826.444 2241.05 816.434C2248.56 806.784 2255.71 796.775 2262.16 786.765C2270.02 770.68 2277.88 755.666 2286.47 741.725C2286.47 740.296 2286.47 738.865 2286.47 737.793C2286.47 728.856 2282.15 724.566 2273.24 724.566C2265.74 724.566 2257.5 728.856 2248.21 737.436C2238.91 746.014 2230.35 756.381 2221.76 768.534C2213.17 781.045 2206.02 793.199 2199.95 805.353C2193.53 817.508 2189.6 827.159 2188.16 834.308C2187.43 836.809 2187.08 839.312 2187.08 841.457C2187.08 848.248 2190.3 851.824 2196.72 851.824C2203.17 851.824 2209.98 848.248 2217.83 841.457V841.457ZM2179.22 848.248C2178.14 845.03 2177.79 841.457 2177.79 837.883C2177.79 834.308 2178.14 830.733 2179.22 826.801C2182.1 811.788 2188.87 796.059 2199.6 779.258C2210.33 762.814 2222.11 748.875 2235.34 737.078C2248.21 725.638 2260.37 719.92 2271.81 719.92C2282.54 719.92 2288.25 724.923 2288.25 735.29V738.508C2292.89 731.001 2297.16 724.209 2301.13 718.847C2303.26 716.345 2305.4 714.914 2308.28 714.914C2310.04 714.914 2311.47 715.63 2312.56 717.06C2313.26 718.133 2313.64 719.204 2313.64 720.635V722.065C2312.21 724.923 2305.76 735.647 2294.32 754.237C2283.94 770.68 2273.95 787.123 2264.65 803.566C2255.01 820.009 2249.29 832.877 2247.5 842.529C2246.77 844.316 2246.77 846.104 2246.77 847.177C2246.77 850.393 2247.85 852.181 2250.7 852.181C2255.71 852.181 2262.86 847.533 2271.81 837.883C2280.37 828.23 2288.96 817.864 2296.85 806.784C2304.67 795.701 2310.42 787.48 2313.96 781.759L2314.7 782.118C2282.89 831.805 2261.08 856.469 2249.29 856.469C2243.93 856.469 2241.05 853.253 2241.05 846.463C2241.05 843.96 2241.4 841.1 2242.49 837.524C2244.63 827.159 2249.29 814.29 2256.8 798.204C2231.41 836.453 2210.33 856.469 2193.18 858.257C2185.29 858.257 2180.66 855.04 2179.22 848.248V848.248Z" stroke="white" stroke-width="9.33334" stroke-miterlimit="10"/>
<path d="M585.76 128.285C585.76 128.285 648.847 146.951 679.827 190.95C741.673 116.283 789.496 66.9399 789.496 66.9399L695.994 0.365829L585.76 128.285Z" fill="white"/>
<path d="M916.34 500.725C916.34 507.697 910.524 513.506 903.568 513.506H888.849C881.869 513.506 876.076 507.697 876.076 500.725V255.16C876.076 248.187 881.869 242.375 888.849 242.375H965.91C972.89 242.375 978.706 248.187 978.706 255.16V269.489C978.706 276.462 972.89 282.271 965.91 282.271H929.516C922.536 282.271 916.744 288.081 916.744 295.051V344.244C916.744 351.216 922.536 357.025 929.516 357.025H965.91C972.89 357.025 978.706 362.835 978.706 369.807V384.526C978.706 391.497 972.89 397.308 965.91 397.308H929.516C922.536 397.308 916.744 403.118 916.744 410.09V499.564L916.34 500.725Z" fill="white"/>
<path d="M1067.39 317.517C1065.86 310.546 1063.53 310.546 1061.99 317.517L1044.56 396.533C1043 403.505 1047.66 408.539 1054.62 406.989C1061.2 405.442 1067.39 403.892 1073.22 401.955C1079.79 399.632 1083.66 391.497 1082.12 384.524L1067.39 317.906V317.517ZM1044.93 450.371C1037.96 451.532 1030.99 457.731 1029.43 464.703L1021.7 499.174C1020.16 506.147 1013.17 511.959 1006.2 511.959H989.561C982.569 511.959 977.932 506.147 979.494 499.174L1033.7 253.222C1035.26 246.249 1042.23 240.439 1049.19 240.439H1079.42C1086.39 240.439 1093.36 246.249 1094.92 253.222L1149.15 499.174C1150.68 506.147 1146.02 511.959 1139.05 511.959H1122.39C1115.42 511.959 1108.46 506.147 1106.92 499.174L1096.06 450.758C1094.52 443.786 1087.93 440.302 1080.96 442.625C1070.12 446.111 1058.12 448.822 1044.56 450.758L1044.93 450.371Z" fill="white"/>
<path d="M1229.68 281.885C1222.7 281.885 1216.89 287.695 1216.89 294.667V344.633C1216.89 351.604 1222.31 355.866 1229.29 353.542C1254.86 345.406 1280.41 331.462 1280.41 310.547V304.738C1280.41 291.956 1269.96 281.499 1257.2 281.499H1229.68V281.885ZM1276.94 387.238C1270.74 383.752 1259.51 385.689 1252.92 388.4C1245.16 391.499 1237.05 394.212 1229.29 396.536C1222.31 398.471 1216.51 405.442 1216.51 412.414V460.056C1216.51 467.028 1222.31 472.838 1229.29 472.838H1259.51C1279.24 472.838 1295.53 456.57 1295.53 436.815V418.999C1295.53 405.442 1288.17 393.823 1276.94 387.624V387.238ZM1285.08 508.86C1278.49 511.187 1266.87 511.96 1259.9 511.96H1189.4C1182.43 511.96 1176.62 506.15 1176.62 499.176V253.61C1176.62 246.638 1182.43 240.828 1189.4 240.828H1257.59C1292.81 240.828 1321.49 269.49 1321.49 304.738V310.547C1321.49 323.715 1317.6 335.337 1311.41 345.405C1307.54 351.604 1308.32 358.965 1313.35 363.999C1327.69 377.942 1336.59 397.309 1336.59 418.613V436.428C1336.59 469.738 1314.91 498.014 1285.08 508.471V508.86Z" fill="white"/>
<path d="M1416 281.497C1409.04 281.497 1403.22 287.306 1403.22 294.277V365.546C1403.22 372.517 1409.04 377.552 1416 376.004C1439.25 370.581 1463.65 359.349 1463.65 336.109V307.833C1463.65 293.503 1452.03 281.882 1437.71 281.882H1416.38L1416 281.497ZM1390.84 512.344H1376.12C1369.13 512.344 1363.33 506.535 1363.33 499.564V253.995C1363.33 247.024 1369.13 241.213 1376.12 241.213H1440.41C1476.03 242.375 1504.7 271.813 1504.7 307.833V336.109C1504.7 362.448 1492.32 381.425 1474.49 394.596C1468.7 398.857 1465.57 406.99 1467.91 413.575L1498.12 499.949C1500.44 506.535 1496.55 511.958 1489.6 511.958H1472.55C1465.57 511.958 1457.83 506.535 1455.51 499.949L1430.35 427.906C1428 421.323 1421.04 417.06 1414.84 418.222C1408.64 419.384 1403.6 425.97 1403.6 432.941V499.564C1403.6 506.535 1397.8 512.344 1390.84 512.344Z" fill="white"/>
<path d="M1558.91 512.346H1544.19C1537.23 512.346 1531.43 506.536 1531.43 499.563V253.996C1531.43 247.026 1537.23 241.216 1544.19 241.216H1558.91C1565.9 241.216 1571.7 247.026 1571.7 253.996V499.563C1571.7 506.536 1565.9 512.346 1558.91 512.346Z" fill="white"/>
<path d="M1681.69 512.347H1665.82C1629.02 512.347 1599.2 482.521 1599.2 445.722V309.773C1599.2 272.975 1629.02 243.152 1665.82 243.152H1681.69C1711.12 243.152 1736.3 262.13 1745.21 288.467C1747.55 295.052 1742.51 300.863 1735.54 300.863H1719.66C1712.69 300.863 1704.94 295.052 1699.51 290.405C1694.87 286.145 1688.67 283.433 1681.69 283.433H1665.82C1651.5 283.433 1639.86 295.052 1639.86 309.383V445.335C1639.86 459.667 1651.5 471.286 1665.82 471.286H1681.69C1690.23 471.286 1697.57 467.415 1702.21 461.217C1706.48 455.794 1713.08 449.598 1720.03 449.598H1735.14C1742.11 449.598 1747.55 455.407 1745.61 462.381C1737.87 491.041 1711.92 511.96 1680.93 511.96L1681.69 512.347Z" fill="white"/>
<path d="M1852.15 317.518C1850.58 310.545 1848.27 310.545 1846.73 317.518L1829.29 396.532C1827.75 403.505 1832.4 408.538 1839.35 406.99C1845.93 405.441 1852.15 403.89 1857.95 401.956C1864.52 399.632 1868.4 391.495 1866.86 384.525L1852.15 317.903V317.518ZM1829.67 450.371C1822.71 451.532 1815.72 457.729 1814.19 464.702L1806.43 499.174C1804.89 506.147 1797.9 511.957 1790.94 511.957H1774.3C1767.31 511.957 1762.66 506.147 1764.2 499.174L1818.42 253.22C1819.99 246.247 1826.95 240.437 1833.94 240.437H1864.14C1871.13 240.437 1878.08 246.247 1879.62 253.22L1933.87 499.174C1935.41 506.147 1930.76 511.957 1923.8 511.957H1907.13C1900.17 511.957 1893.18 506.147 1891.64 499.174L1880.81 450.759C1879.24 443.786 1872.66 440.301 1865.68 442.625C1854.84 446.11 1842.85 448.823 1829.29 450.759L1829.67 450.371Z" fill="white"/>
<path d="M2167.03 318.294C2167.03 297.766 2150.36 281.108 2129.84 281.108H2109.31C2102.34 281.108 2096.52 286.921 2096.52 293.89V462.767C2096.52 469.74 2102.34 475.549 2109.31 475.549H2129.84C2150.36 475.549 2167.03 458.894 2167.03 438.363V318.682V318.294ZM2167.03 506.922C2160.81 510.41 2149.61 512.347 2142.63 512.347H2068.65C2061.67 512.347 2055.85 506.534 2055.85 499.564V253.999C2055.85 247.026 2061.67 241.217 2068.65 241.217H2134.87C2175.54 243.926 2208.07 277.623 2208.07 319.067V438.754C2208.07 468.191 2191.81 493.752 2167.78 506.922H2167.03Z" fill="white"/>
<path d="M2337.84 500.724C2337.84 507.695 2332.04 513.508 2325.04 513.508H2247.99C2241 513.508 2235.19 507.695 2235.19 500.724V255.158C2235.19 248.187 2241 242.374 2247.99 242.374H2325.04C2332.04 242.374 2337.84 248.187 2337.84 255.158V269.487C2337.84 276.461 2332.04 282.271 2325.04 282.271H2288.64C2281.67 282.271 2275.87 288.08 2275.87 295.051V344.244C2275.87 351.215 2281.67 357.024 2288.64 357.024H2325.04C2332.04 357.024 2337.84 362.834 2337.84 369.807V384.525C2337.84 391.496 2332.04 397.309 2325.04 397.309H2288.64C2281.67 397.309 2275.87 403.118 2275.87 410.089V463.542C2275.87 470.512 2281.67 476.322 2288.64 476.322H2325.04C2332.04 476.322 2337.84 482.131 2337.84 489.105V499.563V500.724Z" fill="white"/>
<path d="M1085.99 231.831L1103.81 206.074C1106.39 202.371 1105.11 196.921 1100.9 194.02L1090.84 187.092C1086.65 184.193 1080.91 184.809 1078.33 188.512L1050.57 227.91L1085.99 231.831Z" fill="white"/>
<path d="M438.161 876.714L443.056 876.952C443.056 876.952 447.5 757.314 446.394 757.261C445.288 757.208 441.725 757.036 441.725 757.036L438.161 876.714Z" fill="black"/>
</svg>
